G04 #@! TF.FileFunction,Copper,L2,Bot,Signal*
%FSLAX46Y46*%
G04 Gerber Fmt 4.6, Leading zero omitted, Abs format (unit mm)*
G04 Created by KiCad (PCBNEW 4.0.7) date 01/29/18 05:57:28*
%MOMM*%
%LPD*%
G01*
G04 APERTURE LIST*
%ADD10C,0.100000*%
%ADD11R,1.700000X1.700000*%
%ADD12O,1.700000X1.700000*%
%ADD13R,2.600000X2.600000*%
%ADD14C,2.600000*%
%ADD15R,3.000000X3.000000*%
%ADD16C,3.000000*%
%ADD17C,4.000000*%
%ADD18C,1.524000*%
%ADD19C,0.600000*%
%ADD20C,0.762000*%
%ADD21C,0.406400*%
%ADD22C,0.254000*%
G04 APERTURE END LIST*
D10*
D11*
X142524480Y-124871480D03*
D12*
X142524480Y-127411480D03*
X139984480Y-124871480D03*
X139984480Y-127411480D03*
X137444480Y-124871480D03*
X137444480Y-127411480D03*
D13*
X119788940Y-73086480D03*
D14*
X119788940Y-67086480D03*
X115088940Y-70086480D03*
D11*
X124477780Y-78381860D03*
D12*
X124477780Y-80921860D03*
X121937780Y-78381860D03*
X121937780Y-80921860D03*
X119397780Y-78381860D03*
X119397780Y-80921860D03*
D11*
X114635280Y-112049560D03*
D12*
X114635280Y-114589560D03*
X114635280Y-117129560D03*
X114635280Y-119669560D03*
X114635280Y-122209560D03*
X114635280Y-124749560D03*
D15*
X132298440Y-66083180D03*
D16*
X137378440Y-66083180D03*
D15*
X143972280Y-66131440D03*
D16*
X149052280Y-66131440D03*
D11*
X162532060Y-80050640D03*
D12*
X162532060Y-82590640D03*
X162532060Y-85130640D03*
X162532060Y-87670640D03*
X162532060Y-90210640D03*
X162532060Y-92750640D03*
X162532060Y-95290640D03*
X162532060Y-97830640D03*
X162532060Y-100370640D03*
X162532060Y-102910640D03*
D11*
X162554920Y-107010200D03*
D12*
X162554920Y-109550200D03*
X162554920Y-112090200D03*
X162554920Y-114630200D03*
X162554920Y-117170200D03*
X162554920Y-119710200D03*
X162554920Y-122250200D03*
X162554920Y-124790200D03*
D15*
X154848560Y-66136520D03*
D16*
X159928560Y-66136520D03*
D11*
X156989780Y-82064860D03*
D12*
X156989780Y-84604860D03*
X156989780Y-87144860D03*
D11*
X152163780Y-82064860D03*
D12*
X152163780Y-84604860D03*
X152163780Y-87144860D03*
D17*
X114632740Y-76271120D03*
X119085360Y-126746000D03*
X147093940Y-126756160D03*
D11*
X124858780Y-121688860D03*
D12*
X124858780Y-124228860D03*
X124858780Y-126768860D03*
D11*
X114640360Y-89207340D03*
D12*
X114640360Y-91747340D03*
X114640360Y-94287340D03*
X114640360Y-96827340D03*
X114640360Y-99367340D03*
X114640360Y-101907340D03*
X114640360Y-104447340D03*
X114640360Y-106987340D03*
D17*
X162590480Y-76250800D03*
D11*
X134112000Y-76200000D03*
D12*
X134112000Y-78740000D03*
D11*
X139700000Y-76200000D03*
D12*
X139700000Y-78740000D03*
D18*
X151993600Y-78841600D03*
X121627900Y-118295420D03*
X117050820Y-109522260D03*
X129136140Y-74576940D03*
X126819660Y-76944220D03*
X140165976Y-84307030D03*
X123167140Y-82999580D03*
D19*
X146743420Y-78892400D03*
X148709380Y-74767440D03*
X147868640Y-78910180D03*
X151985980Y-74792840D03*
X148968460Y-78907640D03*
X155303220Y-74963020D03*
X154592020Y-83416140D03*
X154581860Y-86042500D03*
D20*
X117050820Y-109522260D02*
X117050820Y-113718340D01*
X117050820Y-113718340D02*
X121627900Y-118295420D01*
X126819660Y-76944220D02*
X126819660Y-76893420D01*
X126819660Y-76893420D02*
X129136140Y-74576940D01*
X139403977Y-83545031D02*
X140165976Y-84307030D01*
X123167140Y-82999580D02*
X138858526Y-82999580D01*
X138858526Y-82999580D02*
X139403977Y-83545031D01*
D21*
X148709380Y-74767440D02*
X146743420Y-76733400D01*
X146743420Y-76733400D02*
X146743420Y-78892400D01*
X151985980Y-74792840D02*
X147868640Y-78910180D01*
X154525980Y-75740260D02*
X152135840Y-75740260D01*
X152135840Y-75740260D02*
X148968460Y-78907640D01*
X155303220Y-74963020D02*
X154525980Y-75740260D01*
X154581860Y-86042500D02*
X154581860Y-83426300D01*
X154581860Y-83426300D02*
X154592020Y-83416140D01*
D22*
G36*
X164380780Y-74280892D02*
X164285895Y-74375777D01*
X164065127Y-74005057D01*
X163093468Y-73611681D01*
X162045233Y-73620087D01*
X161115833Y-74005057D01*
X160895064Y-74375778D01*
X162590480Y-76071195D01*
X162604622Y-76057052D01*
X162784228Y-76236658D01*
X162770085Y-76250800D01*
X162784228Y-76264942D01*
X162604622Y-76444548D01*
X162590480Y-76430405D01*
X160895064Y-78125822D01*
X161115833Y-78496543D01*
X161415232Y-78617755D01*
X161230619Y-78736550D01*
X161085629Y-78948750D01*
X161034620Y-79200640D01*
X161034620Y-80900640D01*
X161078898Y-81135957D01*
X161217970Y-81352081D01*
X161430170Y-81497071D01*
X161497601Y-81510726D01*
X161452913Y-81540586D01*
X161131006Y-82022355D01*
X161017967Y-82590640D01*
X161131006Y-83158925D01*
X161452913Y-83640694D01*
X161782086Y-83860640D01*
X161452913Y-84080586D01*
X161131006Y-84562355D01*
X161017967Y-85130640D01*
X161131006Y-85698925D01*
X161452913Y-86180694D01*
X161793613Y-86408342D01*
X161650702Y-86475457D01*
X161260415Y-86903716D01*
X161090584Y-87313750D01*
X161211905Y-87543640D01*
X162405060Y-87543640D01*
X162405060Y-87523640D01*
X162659060Y-87523640D01*
X162659060Y-87543640D01*
X163852215Y-87543640D01*
X163973536Y-87313750D01*
X163803705Y-86903716D01*
X163413418Y-86475457D01*
X163270507Y-86408342D01*
X163611207Y-86180694D01*
X163933114Y-85698925D01*
X164046153Y-85130640D01*
X163933114Y-84562355D01*
X163611207Y-84080586D01*
X163282034Y-83860640D01*
X163611207Y-83640694D01*
X163933114Y-83158925D01*
X164046153Y-82590640D01*
X163933114Y-82022355D01*
X163611207Y-81540586D01*
X163569608Y-81512790D01*
X163617377Y-81503802D01*
X163833501Y-81364730D01*
X163978491Y-81152530D01*
X164029500Y-80900640D01*
X164029500Y-79200640D01*
X163985222Y-78965323D01*
X163846150Y-78749199D01*
X163698583Y-78648371D01*
X164065127Y-78496543D01*
X164285895Y-78125823D01*
X164380780Y-78220708D01*
X164380780Y-125545313D01*
X163831422Y-125544891D01*
X163955974Y-125358485D01*
X164069013Y-124790200D01*
X163955974Y-124221915D01*
X163634067Y-123740146D01*
X163304894Y-123520200D01*
X163634067Y-123300254D01*
X163955974Y-122818485D01*
X164069013Y-122250200D01*
X163955974Y-121681915D01*
X163634067Y-121200146D01*
X163304894Y-120980200D01*
X163634067Y-120760254D01*
X163955974Y-120278485D01*
X164069013Y-119710200D01*
X163955974Y-119141915D01*
X163634067Y-118660146D01*
X163304894Y-118440200D01*
X163634067Y-118220254D01*
X163955974Y-117738485D01*
X164069013Y-117170200D01*
X163955974Y-116601915D01*
X163634067Y-116120146D01*
X163304894Y-115900200D01*
X163634067Y-115680254D01*
X163955974Y-115198485D01*
X164069013Y-114630200D01*
X163955974Y-114061915D01*
X163634067Y-113580146D01*
X163304894Y-113360200D01*
X163634067Y-113140254D01*
X163955974Y-112658485D01*
X164069013Y-112090200D01*
X163955974Y-111521915D01*
X163634067Y-111040146D01*
X163304894Y-110820200D01*
X163634067Y-110600254D01*
X163955974Y-110118485D01*
X164069013Y-109550200D01*
X163955974Y-108981915D01*
X163634067Y-108500146D01*
X163592468Y-108472350D01*
X163640237Y-108463362D01*
X163856361Y-108324290D01*
X164001351Y-108112090D01*
X164052360Y-107860200D01*
X164052360Y-106160200D01*
X164008082Y-105924883D01*
X163869010Y-105708759D01*
X163656810Y-105563769D01*
X163404920Y-105512760D01*
X161704920Y-105512760D01*
X161469603Y-105557038D01*
X161253479Y-105696110D01*
X161108489Y-105908310D01*
X161057480Y-106160200D01*
X161057480Y-107860200D01*
X161101758Y-108095517D01*
X161240830Y-108311641D01*
X161453030Y-108456631D01*
X161520461Y-108470286D01*
X161475773Y-108500146D01*
X161153866Y-108981915D01*
X161040827Y-109550200D01*
X161153866Y-110118485D01*
X161475773Y-110600254D01*
X161804946Y-110820200D01*
X161475773Y-111040146D01*
X161153866Y-111521915D01*
X161040827Y-112090200D01*
X161153866Y-112658485D01*
X161475773Y-113140254D01*
X161804946Y-113360200D01*
X161475773Y-113580146D01*
X161153866Y-114061915D01*
X161040827Y-114630200D01*
X161153866Y-115198485D01*
X161475773Y-115680254D01*
X161804946Y-115900200D01*
X161475773Y-116120146D01*
X161153866Y-116601915D01*
X161040827Y-117170200D01*
X161153866Y-117738485D01*
X161475773Y-118220254D01*
X161804946Y-118440200D01*
X161475773Y-118660146D01*
X161153866Y-119141915D01*
X161040827Y-119710200D01*
X161153866Y-120278485D01*
X161475773Y-120760254D01*
X161804946Y-120980200D01*
X161475773Y-121200146D01*
X161153866Y-121681915D01*
X161040827Y-122250200D01*
X161153866Y-122818485D01*
X161475773Y-123300254D01*
X161804946Y-123520200D01*
X161475773Y-123740146D01*
X161153866Y-124221915D01*
X161040827Y-124790200D01*
X161153866Y-125358485D01*
X161277105Y-125542926D01*
X152091326Y-125535860D01*
X152091052Y-125535914D01*
X152090780Y-125535860D01*
X151955416Y-125562786D01*
X151819580Y-125589697D01*
X151819348Y-125589852D01*
X151819075Y-125589906D01*
X151704196Y-125666665D01*
X151589120Y-125743428D01*
X151588965Y-125743660D01*
X151588734Y-125743814D01*
X149501543Y-127831005D01*
X149733059Y-127259148D01*
X149724653Y-126210913D01*
X149339683Y-125281513D01*
X148968962Y-125060744D01*
X147273545Y-126756160D01*
X147287688Y-126770302D01*
X147108082Y-126949908D01*
X147093940Y-126935765D01*
X147079798Y-126949908D01*
X146900192Y-126770302D01*
X146914335Y-126756160D01*
X145218918Y-125060744D01*
X144848197Y-125281513D01*
X144454821Y-126253172D01*
X144463227Y-127301407D01*
X144848197Y-128230807D01*
X145218917Y-128451575D01*
X145124632Y-128545860D01*
X143491872Y-128545860D01*
X143574534Y-128490627D01*
X143896441Y-128008858D01*
X144009480Y-127440573D01*
X144009480Y-127382387D01*
X143896441Y-126814102D01*
X143574534Y-126332333D01*
X143573301Y-126331509D01*
X143609797Y-126324642D01*
X143825921Y-126185570D01*
X143970911Y-125973370D01*
X144021920Y-125721480D01*
X144021920Y-124881138D01*
X145398524Y-124881138D01*
X147093940Y-126576555D01*
X148789356Y-124881138D01*
X148568587Y-124510417D01*
X147596928Y-124117041D01*
X146548693Y-124125447D01*
X145619293Y-124510417D01*
X145398524Y-124881138D01*
X144021920Y-124881138D01*
X144021920Y-124021480D01*
X143977642Y-123786163D01*
X143838570Y-123570039D01*
X143626370Y-123425049D01*
X143374480Y-123374040D01*
X141674480Y-123374040D01*
X141439163Y-123418318D01*
X141223039Y-123557390D01*
X141078049Y-123769590D01*
X141064394Y-123837021D01*
X141034534Y-123792333D01*
X140552765Y-123470426D01*
X139984480Y-123357387D01*
X139416195Y-123470426D01*
X138934426Y-123792333D01*
X138714480Y-124121506D01*
X138494534Y-123792333D01*
X138012765Y-123470426D01*
X137444480Y-123357387D01*
X136876195Y-123470426D01*
X136394426Y-123792333D01*
X136072519Y-124274102D01*
X135959480Y-124842387D01*
X135959480Y-124900573D01*
X136072519Y-125468858D01*
X136394426Y-125950627D01*
X136680058Y-126141480D01*
X136394426Y-126332333D01*
X136072519Y-126814102D01*
X135959480Y-127382387D01*
X135959480Y-127440573D01*
X136072519Y-128008858D01*
X136394426Y-128490627D01*
X136477088Y-128545860D01*
X121064828Y-128545860D01*
X120960383Y-128441415D01*
X121331103Y-128220647D01*
X121724479Y-127248988D01*
X121723491Y-127125750D01*
X123417304Y-127125750D01*
X123587135Y-127535784D01*
X123977422Y-127964043D01*
X124501888Y-128210346D01*
X124731780Y-128089679D01*
X124731780Y-126895860D01*
X124985780Y-126895860D01*
X124985780Y-128089679D01*
X125215672Y-128210346D01*
X125740138Y-127964043D01*
X126130425Y-127535784D01*
X126300256Y-127125750D01*
X126178935Y-126895860D01*
X124985780Y-126895860D01*
X124731780Y-126895860D01*
X123538625Y-126895860D01*
X123417304Y-127125750D01*
X121723491Y-127125750D01*
X121716073Y-126200753D01*
X121331103Y-125271353D01*
X120960382Y-125050584D01*
X119264965Y-126746000D01*
X119279108Y-126760142D01*
X119099502Y-126939748D01*
X119085360Y-126925605D01*
X119071218Y-126939748D01*
X118891612Y-126760142D01*
X118905755Y-126746000D01*
X117210338Y-125050584D01*
X116839617Y-125271353D01*
X116446241Y-126243012D01*
X116454647Y-127291247D01*
X116684024Y-127845012D01*
X115005681Y-126166669D01*
X115232658Y-126121521D01*
X115714427Y-125799614D01*
X116036334Y-125317845D01*
X116125221Y-124870978D01*
X117389944Y-124870978D01*
X119085360Y-126566395D01*
X120780776Y-124870978D01*
X120560007Y-124500257D01*
X119889643Y-124228860D01*
X123344687Y-124228860D01*
X123457726Y-124797145D01*
X123779633Y-125278914D01*
X124120333Y-125506562D01*
X123977422Y-125573677D01*
X123587135Y-126001936D01*
X123417304Y-126411970D01*
X123538625Y-126641860D01*
X124731780Y-126641860D01*
X124731780Y-126621860D01*
X124985780Y-126621860D01*
X124985780Y-126641860D01*
X126178935Y-126641860D01*
X126300256Y-126411970D01*
X126130425Y-126001936D01*
X125740138Y-125573677D01*
X125597227Y-125506562D01*
X125937927Y-125278914D01*
X126259834Y-124797145D01*
X126372873Y-124228860D01*
X126259834Y-123660575D01*
X125937927Y-123178806D01*
X125896328Y-123151010D01*
X125944097Y-123142022D01*
X126160221Y-123002950D01*
X126305211Y-122790750D01*
X126356220Y-122538860D01*
X126356220Y-120838860D01*
X126311942Y-120603543D01*
X126172870Y-120387419D01*
X125960670Y-120242429D01*
X125708780Y-120191420D01*
X124008780Y-120191420D01*
X123773463Y-120235698D01*
X123557339Y-120374770D01*
X123412349Y-120586970D01*
X123361340Y-120838860D01*
X123361340Y-122538860D01*
X123405618Y-122774177D01*
X123544690Y-122990301D01*
X123756890Y-123135291D01*
X123824321Y-123148946D01*
X123779633Y-123178806D01*
X123457726Y-123660575D01*
X123344687Y-124228860D01*
X119889643Y-124228860D01*
X119588348Y-124106881D01*
X118540113Y-124115287D01*
X117610713Y-124500257D01*
X117389944Y-124870978D01*
X116125221Y-124870978D01*
X116149373Y-124749560D01*
X116036334Y-124181275D01*
X115714427Y-123699506D01*
X115385254Y-123479560D01*
X115714427Y-123259614D01*
X116036334Y-122777845D01*
X116149373Y-122209560D01*
X116036334Y-121641275D01*
X115714427Y-121159506D01*
X115385254Y-120939560D01*
X115714427Y-120719614D01*
X116036334Y-120237845D01*
X116149373Y-119669560D01*
X116036334Y-119101275D01*
X115714427Y-118619506D01*
X115385254Y-118399560D01*
X115714427Y-118179614D01*
X116036334Y-117697845D01*
X116149373Y-117129560D01*
X116036334Y-116561275D01*
X115714427Y-116079506D01*
X115385254Y-115859560D01*
X115714427Y-115639614D01*
X116036334Y-115157845D01*
X116149373Y-114589560D01*
X116036334Y-114021275D01*
X115714427Y-113539506D01*
X115672828Y-113511710D01*
X115720597Y-113502722D01*
X115936721Y-113363650D01*
X116034820Y-113220077D01*
X116034820Y-113718340D01*
X116095077Y-114021275D01*
X116112158Y-114107147D01*
X116332400Y-114436760D01*
X120230865Y-118335226D01*
X120230658Y-118572081D01*
X120442890Y-119085723D01*
X120835530Y-119479049D01*
X121348800Y-119692177D01*
X121904561Y-119692662D01*
X122418203Y-119480430D01*
X122811529Y-119087790D01*
X123024657Y-118574520D01*
X123025142Y-118018759D01*
X122812910Y-117505117D01*
X122420270Y-117111791D01*
X121907000Y-116898663D01*
X121667775Y-116898454D01*
X118066820Y-113297500D01*
X118066820Y-110481967D01*
X118234449Y-110314630D01*
X118447577Y-109801360D01*
X118448062Y-109245599D01*
X118235830Y-108731957D01*
X117843190Y-108338631D01*
X117329920Y-108125503D01*
X116774159Y-108125018D01*
X116260517Y-108337250D01*
X115867191Y-108729890D01*
X115654063Y-109243160D01*
X115653578Y-109798921D01*
X115865810Y-110312563D01*
X116034820Y-110481868D01*
X116034820Y-110880912D01*
X115949370Y-110748119D01*
X115737170Y-110603129D01*
X115485280Y-110552120D01*
X113785280Y-110552120D01*
X113549963Y-110596398D01*
X113333839Y-110735470D01*
X113188849Y-110947670D01*
X113137840Y-111199560D01*
X113137840Y-112899560D01*
X113182118Y-113134877D01*
X113321190Y-113351001D01*
X113533390Y-113495991D01*
X113600821Y-113509646D01*
X113556133Y-113539506D01*
X113234226Y-114021275D01*
X113121187Y-114589560D01*
X113234226Y-115157845D01*
X113556133Y-115639614D01*
X113885306Y-115859560D01*
X113556133Y-116079506D01*
X113234226Y-116561275D01*
X113121187Y-117129560D01*
X113234226Y-117697845D01*
X113556133Y-118179614D01*
X113885306Y-118399560D01*
X113556133Y-118619506D01*
X113234226Y-119101275D01*
X113121187Y-119669560D01*
X113234226Y-120237845D01*
X113556133Y-120719614D01*
X113885306Y-120939560D01*
X113556133Y-121159506D01*
X113234226Y-121641275D01*
X113121187Y-122209560D01*
X113234226Y-122777845D01*
X113556133Y-123259614D01*
X113885306Y-123479560D01*
X113556133Y-123699506D01*
X113234226Y-124181275D01*
X113121187Y-124749560D01*
X113234226Y-125317845D01*
X113386580Y-125545860D01*
X112800780Y-125545860D01*
X112800780Y-106987340D01*
X113126267Y-106987340D01*
X113239306Y-107555625D01*
X113561213Y-108037394D01*
X114042982Y-108359301D01*
X114611267Y-108472340D01*
X114669453Y-108472340D01*
X115237738Y-108359301D01*
X115719507Y-108037394D01*
X116041414Y-107555625D01*
X116154453Y-106987340D01*
X116041414Y-106419055D01*
X115719507Y-105937286D01*
X115378807Y-105709638D01*
X115521718Y-105642523D01*
X115912005Y-105214264D01*
X116081836Y-104804230D01*
X115960515Y-104574340D01*
X114767360Y-104574340D01*
X114767360Y-104594340D01*
X114513360Y-104594340D01*
X114513360Y-104574340D01*
X113320205Y-104574340D01*
X113198884Y-104804230D01*
X113368715Y-105214264D01*
X113759002Y-105642523D01*
X113901913Y-105709638D01*
X113561213Y-105937286D01*
X113239306Y-106419055D01*
X113126267Y-106987340D01*
X112800780Y-106987340D01*
X112800780Y-102264230D01*
X113198884Y-102264230D01*
X113368715Y-102674264D01*
X113759002Y-103102523D01*
X113918314Y-103177340D01*
X113759002Y-103252157D01*
X113368715Y-103680416D01*
X113198884Y-104090450D01*
X113320205Y-104320340D01*
X114513360Y-104320340D01*
X114513360Y-102034340D01*
X114767360Y-102034340D01*
X114767360Y-104320340D01*
X115960515Y-104320340D01*
X116081836Y-104090450D01*
X115912005Y-103680416D01*
X115521718Y-103252157D01*
X115362406Y-103177340D01*
X115521718Y-103102523D01*
X115912005Y-102674264D01*
X116081836Y-102264230D01*
X115960515Y-102034340D01*
X114767360Y-102034340D01*
X114513360Y-102034340D01*
X113320205Y-102034340D01*
X113198884Y-102264230D01*
X112800780Y-102264230D01*
X112800780Y-91747340D01*
X113126267Y-91747340D01*
X113239306Y-92315625D01*
X113561213Y-92797394D01*
X113890386Y-93017340D01*
X113561213Y-93237286D01*
X113239306Y-93719055D01*
X113126267Y-94287340D01*
X113239306Y-94855625D01*
X113561213Y-95337394D01*
X113890386Y-95557340D01*
X113561213Y-95777286D01*
X113239306Y-96259055D01*
X113126267Y-96827340D01*
X113239306Y-97395625D01*
X113561213Y-97877394D01*
X113890386Y-98097340D01*
X113561213Y-98317286D01*
X113239306Y-98799055D01*
X113126267Y-99367340D01*
X113239306Y-99935625D01*
X113561213Y-100417394D01*
X113901913Y-100645042D01*
X113759002Y-100712157D01*
X113368715Y-101140416D01*
X113198884Y-101550450D01*
X113320205Y-101780340D01*
X114513360Y-101780340D01*
X114513360Y-101760340D01*
X114767360Y-101760340D01*
X114767360Y-101780340D01*
X115960515Y-101780340D01*
X116081836Y-101550450D01*
X115912005Y-101140416D01*
X115521718Y-100712157D01*
X115378807Y-100645042D01*
X115719507Y-100417394D01*
X116041414Y-99935625D01*
X116154453Y-99367340D01*
X116041414Y-98799055D01*
X115719507Y-98317286D01*
X115390334Y-98097340D01*
X115719507Y-97877394D01*
X116041414Y-97395625D01*
X116154453Y-96827340D01*
X116041414Y-96259055D01*
X115719507Y-95777286D01*
X115390334Y-95557340D01*
X115719507Y-95337394D01*
X116041414Y-94855625D01*
X116154453Y-94287340D01*
X116041414Y-93719055D01*
X115719507Y-93237286D01*
X115390334Y-93017340D01*
X115719507Y-92797394D01*
X116041414Y-92315625D01*
X116154453Y-91747340D01*
X116041414Y-91179055D01*
X115719507Y-90697286D01*
X115677908Y-90669490D01*
X115725677Y-90660502D01*
X115941801Y-90521430D01*
X116086791Y-90309230D01*
X116106755Y-90210640D01*
X161017967Y-90210640D01*
X161131006Y-90778925D01*
X161452913Y-91260694D01*
X161782086Y-91480640D01*
X161452913Y-91700586D01*
X161131006Y-92182355D01*
X161017967Y-92750640D01*
X161131006Y-93318925D01*
X161452913Y-93800694D01*
X161782086Y-94020640D01*
X161452913Y-94240586D01*
X161131006Y-94722355D01*
X161017967Y-95290640D01*
X161131006Y-95858925D01*
X161452913Y-96340694D01*
X161782086Y-96560640D01*
X161452913Y-96780586D01*
X161131006Y-97262355D01*
X161017967Y-97830640D01*
X161131006Y-98398925D01*
X161452913Y-98880694D01*
X161782086Y-99100640D01*
X161452913Y-99320586D01*
X161131006Y-99802355D01*
X161017967Y-100370640D01*
X161131006Y-100938925D01*
X161452913Y-101420694D01*
X161782086Y-101640640D01*
X161452913Y-101860586D01*
X161131006Y-102342355D01*
X161017967Y-102910640D01*
X161131006Y-103478925D01*
X161452913Y-103960694D01*
X161934682Y-104282601D01*
X162502967Y-104395640D01*
X162561153Y-104395640D01*
X163129438Y-104282601D01*
X163611207Y-103960694D01*
X163933114Y-103478925D01*
X164046153Y-102910640D01*
X163933114Y-102342355D01*
X163611207Y-101860586D01*
X163282034Y-101640640D01*
X163611207Y-101420694D01*
X163933114Y-100938925D01*
X164046153Y-100370640D01*
X163933114Y-99802355D01*
X163611207Y-99320586D01*
X163282034Y-99100640D01*
X163611207Y-98880694D01*
X163933114Y-98398925D01*
X164046153Y-97830640D01*
X163933114Y-97262355D01*
X163611207Y-96780586D01*
X163282034Y-96560640D01*
X163611207Y-96340694D01*
X163933114Y-95858925D01*
X164046153Y-95290640D01*
X163933114Y-94722355D01*
X163611207Y-94240586D01*
X163282034Y-94020640D01*
X163611207Y-93800694D01*
X163933114Y-93318925D01*
X164046153Y-92750640D01*
X163933114Y-92182355D01*
X163611207Y-91700586D01*
X163282034Y-91480640D01*
X163611207Y-91260694D01*
X163933114Y-90778925D01*
X164046153Y-90210640D01*
X163933114Y-89642355D01*
X163611207Y-89160586D01*
X163270507Y-88932938D01*
X163413418Y-88865823D01*
X163803705Y-88437564D01*
X163973536Y-88027530D01*
X163852215Y-87797640D01*
X162659060Y-87797640D01*
X162659060Y-87817640D01*
X162405060Y-87817640D01*
X162405060Y-87797640D01*
X161211905Y-87797640D01*
X161090584Y-88027530D01*
X161260415Y-88437564D01*
X161650702Y-88865823D01*
X161793613Y-88932938D01*
X161452913Y-89160586D01*
X161131006Y-89642355D01*
X161017967Y-90210640D01*
X116106755Y-90210640D01*
X116137800Y-90057340D01*
X116137800Y-88357340D01*
X116093522Y-88122023D01*
X115954450Y-87905899D01*
X115742250Y-87760909D01*
X115490360Y-87709900D01*
X113790360Y-87709900D01*
X113555043Y-87754178D01*
X113338919Y-87893250D01*
X113193929Y-88105450D01*
X113142920Y-88357340D01*
X113142920Y-90057340D01*
X113187198Y-90292657D01*
X113326270Y-90508781D01*
X113538470Y-90653771D01*
X113605901Y-90667426D01*
X113561213Y-90697286D01*
X113239306Y-91179055D01*
X113126267Y-91747340D01*
X112800780Y-91747340D01*
X112800780Y-87501750D01*
X150722304Y-87501750D01*
X150892135Y-87911784D01*
X151282422Y-88340043D01*
X151806888Y-88586346D01*
X152036780Y-88465679D01*
X152036780Y-87271860D01*
X152290780Y-87271860D01*
X152290780Y-88465679D01*
X152520672Y-88586346D01*
X153045138Y-88340043D01*
X153435425Y-87911784D01*
X153605256Y-87501750D01*
X155548304Y-87501750D01*
X155718135Y-87911784D01*
X156108422Y-88340043D01*
X156632888Y-88586346D01*
X156862780Y-88465679D01*
X156862780Y-87271860D01*
X157116780Y-87271860D01*
X157116780Y-88465679D01*
X157346672Y-88586346D01*
X157871138Y-88340043D01*
X158261425Y-87911784D01*
X158431256Y-87501750D01*
X158309935Y-87271860D01*
X157116780Y-87271860D01*
X156862780Y-87271860D01*
X155669625Y-87271860D01*
X155548304Y-87501750D01*
X153605256Y-87501750D01*
X153483935Y-87271860D01*
X152290780Y-87271860D01*
X152036780Y-87271860D01*
X150843625Y-87271860D01*
X150722304Y-87501750D01*
X112800780Y-87501750D01*
X112800780Y-78235100D01*
X112824574Y-78258894D01*
X112937325Y-78146143D01*
X113158093Y-78516863D01*
X114129752Y-78910239D01*
X115177987Y-78901833D01*
X116107387Y-78516863D01*
X116205108Y-78352767D01*
X117912780Y-78352767D01*
X117912780Y-78410953D01*
X118025819Y-78979238D01*
X118347726Y-79461007D01*
X118633358Y-79651860D01*
X118347726Y-79842713D01*
X118025819Y-80324482D01*
X117912780Y-80892767D01*
X117912780Y-80950953D01*
X118025819Y-81519238D01*
X118347726Y-82001007D01*
X118829495Y-82322914D01*
X119397780Y-82435953D01*
X119966065Y-82322914D01*
X120447834Y-82001007D01*
X120667780Y-81671834D01*
X120887726Y-82001007D01*
X121369495Y-82322914D01*
X121892286Y-82426904D01*
X121770383Y-82720480D01*
X121769898Y-83276241D01*
X121982130Y-83789883D01*
X122374770Y-84183209D01*
X122888040Y-84396337D01*
X123443801Y-84396822D01*
X123957443Y-84184590D01*
X124126748Y-84015580D01*
X138437685Y-84015580D01*
X138685556Y-84263451D01*
X138685559Y-84263453D01*
X138768941Y-84346835D01*
X138768734Y-84583691D01*
X138980966Y-85097333D01*
X139373606Y-85490659D01*
X139886876Y-85703787D01*
X140442637Y-85704272D01*
X140956279Y-85492040D01*
X141349605Y-85099400D01*
X141554955Y-84604860D01*
X150649687Y-84604860D01*
X150762726Y-85173145D01*
X151084633Y-85654914D01*
X151425333Y-85882562D01*
X151282422Y-85949677D01*
X150892135Y-86377936D01*
X150722304Y-86787970D01*
X150843625Y-87017860D01*
X152036780Y-87017860D01*
X152036780Y-86997860D01*
X152290780Y-86997860D01*
X152290780Y-87017860D01*
X153483935Y-87017860D01*
X153605256Y-86787970D01*
X153435425Y-86377936D01*
X153298480Y-86227667D01*
X153646698Y-86227667D01*
X153788743Y-86571443D01*
X154051533Y-86834692D01*
X154395061Y-86977338D01*
X154767027Y-86977662D01*
X155110803Y-86835617D01*
X155374052Y-86572827D01*
X155516698Y-86229299D01*
X155517022Y-85857333D01*
X155420060Y-85622666D01*
X155420060Y-84604860D01*
X155475687Y-84604860D01*
X155588726Y-85173145D01*
X155910633Y-85654914D01*
X156251333Y-85882562D01*
X156108422Y-85949677D01*
X155718135Y-86377936D01*
X155548304Y-86787970D01*
X155669625Y-87017860D01*
X156862780Y-87017860D01*
X156862780Y-86997860D01*
X157116780Y-86997860D01*
X157116780Y-87017860D01*
X158309935Y-87017860D01*
X158431256Y-86787970D01*
X158261425Y-86377936D01*
X157871138Y-85949677D01*
X157728227Y-85882562D01*
X158068927Y-85654914D01*
X158390834Y-85173145D01*
X158503873Y-84604860D01*
X158390834Y-84036575D01*
X158068927Y-83554806D01*
X158027328Y-83527010D01*
X158075097Y-83518022D01*
X158291221Y-83378950D01*
X158436211Y-83166750D01*
X158487220Y-82914860D01*
X158487220Y-81214860D01*
X158442942Y-80979543D01*
X158303870Y-80763419D01*
X158091670Y-80618429D01*
X157839780Y-80567420D01*
X156139780Y-80567420D01*
X155904463Y-80611698D01*
X155688339Y-80750770D01*
X155543349Y-80962970D01*
X155492340Y-81214860D01*
X155492340Y-82914860D01*
X155536618Y-83150177D01*
X155675690Y-83366301D01*
X155887890Y-83511291D01*
X155955321Y-83524946D01*
X155910633Y-83554806D01*
X155588726Y-84036575D01*
X155475687Y-84604860D01*
X155420060Y-84604860D01*
X155420060Y-83860136D01*
X155526858Y-83602939D01*
X155527182Y-83230973D01*
X155385137Y-82887197D01*
X155122347Y-82623948D01*
X154778819Y-82481302D01*
X154406853Y-82480978D01*
X154063077Y-82623023D01*
X153799828Y-82885813D01*
X153657182Y-83229341D01*
X153656858Y-83601307D01*
X153743660Y-83811384D01*
X153743660Y-85622972D01*
X153647022Y-85855701D01*
X153646698Y-86227667D01*
X153298480Y-86227667D01*
X153045138Y-85949677D01*
X152902227Y-85882562D01*
X153242927Y-85654914D01*
X153564834Y-85173145D01*
X153677873Y-84604860D01*
X153564834Y-84036575D01*
X153242927Y-83554806D01*
X153201328Y-83527010D01*
X153249097Y-83518022D01*
X153465221Y-83378950D01*
X153610211Y-83166750D01*
X153661220Y-82914860D01*
X153661220Y-81214860D01*
X153616942Y-80979543D01*
X153477870Y-80763419D01*
X153265670Y-80618429D01*
X153013780Y-80567420D01*
X151313780Y-80567420D01*
X151078463Y-80611698D01*
X150862339Y-80750770D01*
X150717349Y-80962970D01*
X150666340Y-81214860D01*
X150666340Y-82914860D01*
X150710618Y-83150177D01*
X150849690Y-83366301D01*
X151061890Y-83511291D01*
X151129321Y-83524946D01*
X151084633Y-83554806D01*
X150762726Y-84036575D01*
X150649687Y-84604860D01*
X141554955Y-84604860D01*
X141562733Y-84586130D01*
X141563218Y-84030369D01*
X141350986Y-83516727D01*
X140958346Y-83123401D01*
X140445076Y-82910273D01*
X140205850Y-82910064D01*
X140122399Y-82826613D01*
X140122397Y-82826610D01*
X139576946Y-82281160D01*
X139247333Y-82060918D01*
X139182826Y-82048087D01*
X138858526Y-81983580D01*
X125539478Y-81983580D01*
X125849741Y-81519238D01*
X125962780Y-80950953D01*
X125962780Y-80892767D01*
X125849741Y-80324482D01*
X125527834Y-79842713D01*
X125526601Y-79841889D01*
X125563097Y-79835022D01*
X125779221Y-79695950D01*
X125924211Y-79483750D01*
X125975220Y-79231860D01*
X125975220Y-79096890D01*
X132670524Y-79096890D01*
X132840355Y-79506924D01*
X133230642Y-79935183D01*
X133755108Y-80181486D01*
X133985000Y-80060819D01*
X133985000Y-78867000D01*
X134239000Y-78867000D01*
X134239000Y-80060819D01*
X134468892Y-80181486D01*
X134993358Y-79935183D01*
X135383645Y-79506924D01*
X135553476Y-79096890D01*
X138258524Y-79096890D01*
X138428355Y-79506924D01*
X138818642Y-79935183D01*
X139343108Y-80181486D01*
X139573000Y-80060819D01*
X139573000Y-78867000D01*
X139827000Y-78867000D01*
X139827000Y-80060819D01*
X140056892Y-80181486D01*
X140581358Y-79935183D01*
X140971645Y-79506924D01*
X141141476Y-79096890D01*
X141131279Y-79077567D01*
X145808258Y-79077567D01*
X145950303Y-79421343D01*
X146213093Y-79684592D01*
X146556621Y-79827238D01*
X146928587Y-79827562D01*
X147272363Y-79685517D01*
X147296968Y-79660955D01*
X147338313Y-79702372D01*
X147681841Y-79845018D01*
X148053807Y-79845342D01*
X148397583Y-79703297D01*
X148419626Y-79681293D01*
X148438133Y-79699832D01*
X148781661Y-79842478D01*
X149153627Y-79842802D01*
X149497403Y-79700757D01*
X149760652Y-79437967D01*
X149858024Y-79203470D01*
X152483034Y-76578460D01*
X154525980Y-76578460D01*
X154846746Y-76514656D01*
X155118677Y-76332957D01*
X155599266Y-75852368D01*
X155832163Y-75756137D01*
X155840502Y-75747812D01*
X159951361Y-75747812D01*
X159959767Y-76796047D01*
X160344737Y-77725447D01*
X160715458Y-77946216D01*
X162410875Y-76250800D01*
X160715458Y-74555384D01*
X160344737Y-74776153D01*
X159951361Y-75747812D01*
X155840502Y-75747812D01*
X156095412Y-75493347D01*
X156238058Y-75149819D01*
X156238382Y-74777853D01*
X156096337Y-74434077D01*
X155833547Y-74170828D01*
X155490019Y-74028182D01*
X155118053Y-74027858D01*
X154774277Y-74169903D01*
X154511028Y-74432693D01*
X154413656Y-74667190D01*
X154178786Y-74902060D01*
X152920886Y-74902060D01*
X152921142Y-74607673D01*
X152779097Y-74263897D01*
X152516307Y-74000648D01*
X152172779Y-73858002D01*
X151800813Y-73857678D01*
X151457037Y-73999723D01*
X151193788Y-74262513D01*
X151096416Y-74497010D01*
X147581620Y-78011806D01*
X147581620Y-77080594D01*
X149005426Y-75656788D01*
X149238323Y-75560557D01*
X149501572Y-75297767D01*
X149644218Y-74954239D01*
X149644542Y-74582273D01*
X149502497Y-74238497D01*
X149239707Y-73975248D01*
X148896179Y-73832602D01*
X148524213Y-73832278D01*
X148180437Y-73974323D01*
X147917188Y-74237113D01*
X147819816Y-74471610D01*
X146150723Y-76140703D01*
X145969024Y-76412634D01*
X145969024Y-76412635D01*
X145905220Y-76733400D01*
X145905220Y-78472872D01*
X145808582Y-78705601D01*
X145808258Y-79077567D01*
X141131279Y-79077567D01*
X141020155Y-78867000D01*
X139827000Y-78867000D01*
X139573000Y-78867000D01*
X138379845Y-78867000D01*
X138258524Y-79096890D01*
X135553476Y-79096890D01*
X135432155Y-78867000D01*
X134239000Y-78867000D01*
X133985000Y-78867000D01*
X132791845Y-78867000D01*
X132670524Y-79096890D01*
X125975220Y-79096890D01*
X125975220Y-78075688D01*
X126027290Y-78127849D01*
X126540560Y-78340977D01*
X127096321Y-78341462D01*
X127609963Y-78129230D01*
X128003289Y-77736590D01*
X128216417Y-77223320D01*
X128216670Y-76933250D01*
X129175945Y-75973975D01*
X129412801Y-75974182D01*
X129926443Y-75761950D01*
X130319769Y-75369310D01*
X130327787Y-75350000D01*
X132614560Y-75350000D01*
X132614560Y-77050000D01*
X132658838Y-77285317D01*
X132797910Y-77501441D01*
X133010110Y-77646431D01*
X133118107Y-77668301D01*
X132840355Y-77973076D01*
X132670524Y-78383110D01*
X132791845Y-78613000D01*
X133985000Y-78613000D01*
X133985000Y-78593000D01*
X134239000Y-78593000D01*
X134239000Y-78613000D01*
X135432155Y-78613000D01*
X135553476Y-78383110D01*
X135383645Y-77973076D01*
X135107499Y-77670063D01*
X135197317Y-77653162D01*
X135413441Y-77514090D01*
X135558431Y-77301890D01*
X135609440Y-77050000D01*
X135609440Y-75350000D01*
X138202560Y-75350000D01*
X138202560Y-77050000D01*
X138246838Y-77285317D01*
X138385910Y-77501441D01*
X138598110Y-77646431D01*
X138706107Y-77668301D01*
X138428355Y-77973076D01*
X138258524Y-78383110D01*
X138379845Y-78613000D01*
X139573000Y-78613000D01*
X139573000Y-78593000D01*
X139827000Y-78593000D01*
X139827000Y-78613000D01*
X141020155Y-78613000D01*
X141141476Y-78383110D01*
X140971645Y-77973076D01*
X140695499Y-77670063D01*
X140785317Y-77653162D01*
X141001441Y-77514090D01*
X141146431Y-77301890D01*
X141197440Y-77050000D01*
X141197440Y-75350000D01*
X141153162Y-75114683D01*
X141014090Y-74898559D01*
X140801890Y-74753569D01*
X140550000Y-74702560D01*
X138850000Y-74702560D01*
X138614683Y-74746838D01*
X138398559Y-74885910D01*
X138253569Y-75098110D01*
X138202560Y-75350000D01*
X135609440Y-75350000D01*
X135565162Y-75114683D01*
X135426090Y-74898559D01*
X135213890Y-74753569D01*
X134962000Y-74702560D01*
X133262000Y-74702560D01*
X133026683Y-74746838D01*
X132810559Y-74885910D01*
X132665569Y-75098110D01*
X132614560Y-75350000D01*
X130327787Y-75350000D01*
X130532897Y-74856040D01*
X130533382Y-74300279D01*
X130321150Y-73786637D01*
X129928510Y-73393311D01*
X129415240Y-73180183D01*
X128859479Y-73179698D01*
X128345837Y-73391930D01*
X127952511Y-73784570D01*
X127739383Y-74297840D01*
X127739174Y-74537065D01*
X126729099Y-75547140D01*
X126542999Y-75546978D01*
X126029357Y-75759210D01*
X125636031Y-76151850D01*
X125422903Y-76665120D01*
X125422695Y-76903641D01*
X125327780Y-76884420D01*
X123627780Y-76884420D01*
X123392463Y-76928698D01*
X123176339Y-77067770D01*
X123031349Y-77279970D01*
X123017694Y-77347401D01*
X122987834Y-77302713D01*
X122506065Y-76980806D01*
X121937780Y-76867767D01*
X121369495Y-76980806D01*
X120887726Y-77302713D01*
X120667780Y-77631886D01*
X120447834Y-77302713D01*
X119966065Y-76980806D01*
X119397780Y-76867767D01*
X118829495Y-76980806D01*
X118347726Y-77302713D01*
X118025819Y-77784482D01*
X117912780Y-78352767D01*
X116205108Y-78352767D01*
X116328156Y-78146142D01*
X114632740Y-76450725D01*
X114618598Y-76464868D01*
X114438992Y-76285262D01*
X114453135Y-76271120D01*
X114812345Y-76271120D01*
X116507762Y-77966536D01*
X116878483Y-77745767D01*
X117271859Y-76774108D01*
X117263453Y-75725873D01*
X116878483Y-74796473D01*
X116507762Y-74575704D01*
X114812345Y-76271120D01*
X114453135Y-76271120D01*
X114438992Y-76256978D01*
X114618598Y-76077372D01*
X114632740Y-76091515D01*
X116328156Y-74396098D01*
X116107387Y-74025377D01*
X115135728Y-73632001D01*
X114087493Y-73640407D01*
X113158093Y-74025377D01*
X112937325Y-74396097D01*
X112824574Y-74283346D01*
X112800780Y-74307140D01*
X112800780Y-70469687D01*
X113153605Y-70469687D01*
X113447570Y-71181138D01*
X113991419Y-71725937D01*
X114702356Y-72021143D01*
X115472147Y-72021815D01*
X116041702Y-71786480D01*
X117841500Y-71786480D01*
X117841500Y-74386480D01*
X117885778Y-74621797D01*
X118024850Y-74837921D01*
X118237050Y-74982911D01*
X118488940Y-75033920D01*
X121088940Y-75033920D01*
X121324257Y-74989642D01*
X121540381Y-74850570D01*
X121685371Y-74638370D01*
X121736380Y-74386480D01*
X121736380Y-71786480D01*
X121692102Y-71551163D01*
X121553030Y-71335039D01*
X121340830Y-71190049D01*
X121088940Y-71139040D01*
X118488940Y-71139040D01*
X118253623Y-71183318D01*
X118037499Y-71322390D01*
X117892509Y-71534590D01*
X117841500Y-71786480D01*
X116041702Y-71786480D01*
X116183598Y-71727850D01*
X116728397Y-71184001D01*
X117023603Y-70473064D01*
X117024275Y-69703273D01*
X116730310Y-68991822D01*
X116195362Y-68455939D01*
X118599086Y-68455939D01*
X118734444Y-68753935D01*
X119452820Y-69030546D01*
X120222367Y-69011190D01*
X120843436Y-68753935D01*
X120978794Y-68455939D01*
X119788940Y-67266085D01*
X118599086Y-68455939D01*
X116195362Y-68455939D01*
X116186461Y-68447023D01*
X115475524Y-68151817D01*
X114705733Y-68151145D01*
X113994282Y-68445110D01*
X113449483Y-68988959D01*
X113154277Y-69699896D01*
X113153605Y-70469687D01*
X112800780Y-70469687D01*
X112800780Y-66750360D01*
X117844874Y-66750360D01*
X117864230Y-67519907D01*
X118121485Y-68140976D01*
X118419481Y-68276334D01*
X119609335Y-67086480D01*
X119968545Y-67086480D01*
X121158399Y-68276334D01*
X121456395Y-68140976D01*
X121733006Y-67422600D01*
X121713650Y-66653053D01*
X121595963Y-66368930D01*
X130163440Y-66368930D01*
X130163440Y-67709490D01*
X130260113Y-67942879D01*
X130438742Y-68121507D01*
X130672131Y-68218180D01*
X132012690Y-68218180D01*
X132171440Y-68059430D01*
X132171440Y-66210180D01*
X132425440Y-66210180D01*
X132425440Y-68059430D01*
X132584190Y-68218180D01*
X133924749Y-68218180D01*
X134158138Y-68121507D01*
X134336767Y-67942879D01*
X134433440Y-67709490D01*
X134433440Y-66505995D01*
X135243070Y-66505995D01*
X135567420Y-67290980D01*
X136167481Y-67892089D01*
X136951899Y-68217808D01*
X137801255Y-68218550D01*
X138586240Y-67894200D01*
X139187349Y-67294139D01*
X139513068Y-66509721D01*
X139513810Y-65660365D01*
X139189460Y-64875380D01*
X138945946Y-64631440D01*
X141824840Y-64631440D01*
X141824840Y-67631440D01*
X141869118Y-67866757D01*
X142008190Y-68082881D01*
X142220390Y-68227871D01*
X142472280Y-68278880D01*
X145472280Y-68278880D01*
X145707597Y-68234602D01*
X145923721Y-68095530D01*
X146068711Y-67883330D01*
X146119720Y-67631440D01*
X146119720Y-66554255D01*
X146916910Y-66554255D01*
X147241260Y-67339240D01*
X147841321Y-67940349D01*
X148625739Y-68266068D01*
X149475095Y-68266810D01*
X150260080Y-67942460D01*
X150861189Y-67342399D01*
X151186908Y-66557981D01*
X151187650Y-65708625D01*
X150863300Y-64923640D01*
X150576681Y-64636520D01*
X152701120Y-64636520D01*
X152701120Y-67636520D01*
X152745398Y-67871837D01*
X152884470Y-68087961D01*
X153096670Y-68232951D01*
X153348560Y-68283960D01*
X156348560Y-68283960D01*
X156583877Y-68239682D01*
X156800001Y-68100610D01*
X156944991Y-67888410D01*
X156996000Y-67636520D01*
X156996000Y-66559335D01*
X157793190Y-66559335D01*
X158117540Y-67344320D01*
X158717601Y-67945429D01*
X159502019Y-68271148D01*
X160351375Y-68271890D01*
X161136360Y-67947540D01*
X161737469Y-67347479D01*
X162063188Y-66563061D01*
X162063930Y-65713705D01*
X161739580Y-64928720D01*
X161139519Y-64327611D01*
X160355101Y-64001892D01*
X159505745Y-64001150D01*
X158720760Y-64325500D01*
X158119651Y-64925561D01*
X157793932Y-65709979D01*
X157793190Y-66559335D01*
X156996000Y-66559335D01*
X156996000Y-64636520D01*
X156951722Y-64401203D01*
X156812650Y-64185079D01*
X156600450Y-64040089D01*
X156348560Y-63989080D01*
X153348560Y-63989080D01*
X153113243Y-64033358D01*
X152897119Y-64172430D01*
X152752129Y-64384630D01*
X152701120Y-64636520D01*
X150576681Y-64636520D01*
X150263239Y-64322531D01*
X149478821Y-63996812D01*
X148629465Y-63996070D01*
X147844480Y-64320420D01*
X147243371Y-64920481D01*
X146917652Y-65704899D01*
X146916910Y-66554255D01*
X146119720Y-66554255D01*
X146119720Y-64631440D01*
X146075442Y-64396123D01*
X145936370Y-64179999D01*
X145724170Y-64035009D01*
X145472280Y-63984000D01*
X142472280Y-63984000D01*
X142236963Y-64028278D01*
X142020839Y-64167350D01*
X141875849Y-64379550D01*
X141824840Y-64631440D01*
X138945946Y-64631440D01*
X138589399Y-64274271D01*
X137804981Y-63948552D01*
X136955625Y-63947810D01*
X136170640Y-64272160D01*
X135569531Y-64872221D01*
X135243812Y-65656639D01*
X135243070Y-66505995D01*
X134433440Y-66505995D01*
X134433440Y-66368930D01*
X134274690Y-66210180D01*
X132425440Y-66210180D01*
X132171440Y-66210180D01*
X130322190Y-66210180D01*
X130163440Y-66368930D01*
X121595963Y-66368930D01*
X121456395Y-66031984D01*
X121158399Y-65896626D01*
X119968545Y-67086480D01*
X119609335Y-67086480D01*
X118419481Y-65896626D01*
X118121485Y-66031984D01*
X117844874Y-66750360D01*
X112800780Y-66750360D01*
X112800780Y-65717021D01*
X118599086Y-65717021D01*
X119788940Y-66906875D01*
X120978794Y-65717021D01*
X120843436Y-65419025D01*
X120125060Y-65142414D01*
X119355513Y-65161770D01*
X118734444Y-65419025D01*
X118599086Y-65717021D01*
X112800780Y-65717021D01*
X112800780Y-64456870D01*
X130163440Y-64456870D01*
X130163440Y-65797430D01*
X130322190Y-65956180D01*
X132171440Y-65956180D01*
X132171440Y-64106930D01*
X132425440Y-64106930D01*
X132425440Y-65956180D01*
X134274690Y-65956180D01*
X134433440Y-65797430D01*
X134433440Y-64456870D01*
X134336767Y-64223481D01*
X134158138Y-64044853D01*
X133924749Y-63948180D01*
X132584190Y-63948180D01*
X132425440Y-64106930D01*
X132171440Y-64106930D01*
X132012690Y-63948180D01*
X130672131Y-63948180D01*
X130438742Y-64044853D01*
X130260113Y-64223481D01*
X130163440Y-64456870D01*
X112800780Y-64456870D01*
X112800780Y-61965860D01*
X164380780Y-61965860D01*
X164380780Y-74280892D01*
X164380780Y-74280892D01*
G37*
X164380780Y-74280892D02*
X164285895Y-74375777D01*
X164065127Y-74005057D01*
X163093468Y-73611681D01*
X162045233Y-73620087D01*
X161115833Y-74005057D01*
X160895064Y-74375778D01*
X162590480Y-76071195D01*
X162604622Y-76057052D01*
X162784228Y-76236658D01*
X162770085Y-76250800D01*
X162784228Y-76264942D01*
X162604622Y-76444548D01*
X162590480Y-76430405D01*
X160895064Y-78125822D01*
X161115833Y-78496543D01*
X161415232Y-78617755D01*
X161230619Y-78736550D01*
X161085629Y-78948750D01*
X161034620Y-79200640D01*
X161034620Y-80900640D01*
X161078898Y-81135957D01*
X161217970Y-81352081D01*
X161430170Y-81497071D01*
X161497601Y-81510726D01*
X161452913Y-81540586D01*
X161131006Y-82022355D01*
X161017967Y-82590640D01*
X161131006Y-83158925D01*
X161452913Y-83640694D01*
X161782086Y-83860640D01*
X161452913Y-84080586D01*
X161131006Y-84562355D01*
X161017967Y-85130640D01*
X161131006Y-85698925D01*
X161452913Y-86180694D01*
X161793613Y-86408342D01*
X161650702Y-86475457D01*
X161260415Y-86903716D01*
X161090584Y-87313750D01*
X161211905Y-87543640D01*
X162405060Y-87543640D01*
X162405060Y-87523640D01*
X162659060Y-87523640D01*
X162659060Y-87543640D01*
X163852215Y-87543640D01*
X163973536Y-87313750D01*
X163803705Y-86903716D01*
X163413418Y-86475457D01*
X163270507Y-86408342D01*
X163611207Y-86180694D01*
X163933114Y-85698925D01*
X164046153Y-85130640D01*
X163933114Y-84562355D01*
X163611207Y-84080586D01*
X163282034Y-83860640D01*
X163611207Y-83640694D01*
X163933114Y-83158925D01*
X164046153Y-82590640D01*
X163933114Y-82022355D01*
X163611207Y-81540586D01*
X163569608Y-81512790D01*
X163617377Y-81503802D01*
X163833501Y-81364730D01*
X163978491Y-81152530D01*
X164029500Y-80900640D01*
X164029500Y-79200640D01*
X163985222Y-78965323D01*
X163846150Y-78749199D01*
X163698583Y-78648371D01*
X164065127Y-78496543D01*
X164285895Y-78125823D01*
X164380780Y-78220708D01*
X164380780Y-125545313D01*
X163831422Y-125544891D01*
X163955974Y-125358485D01*
X164069013Y-124790200D01*
X163955974Y-124221915D01*
X163634067Y-123740146D01*
X163304894Y-123520200D01*
X163634067Y-123300254D01*
X163955974Y-122818485D01*
X164069013Y-122250200D01*
X163955974Y-121681915D01*
X163634067Y-121200146D01*
X163304894Y-120980200D01*
X163634067Y-120760254D01*
X163955974Y-120278485D01*
X164069013Y-119710200D01*
X163955974Y-119141915D01*
X163634067Y-118660146D01*
X163304894Y-118440200D01*
X163634067Y-118220254D01*
X163955974Y-117738485D01*
X164069013Y-117170200D01*
X163955974Y-116601915D01*
X163634067Y-116120146D01*
X163304894Y-115900200D01*
X163634067Y-115680254D01*
X163955974Y-115198485D01*
X164069013Y-114630200D01*
X163955974Y-114061915D01*
X163634067Y-113580146D01*
X163304894Y-113360200D01*
X163634067Y-113140254D01*
X163955974Y-112658485D01*
X164069013Y-112090200D01*
X163955974Y-111521915D01*
X163634067Y-111040146D01*
X163304894Y-110820200D01*
X163634067Y-110600254D01*
X163955974Y-110118485D01*
X164069013Y-109550200D01*
X163955974Y-108981915D01*
X163634067Y-108500146D01*
X163592468Y-108472350D01*
X163640237Y-108463362D01*
X163856361Y-108324290D01*
X164001351Y-108112090D01*
X164052360Y-107860200D01*
X164052360Y-106160200D01*
X164008082Y-105924883D01*
X163869010Y-105708759D01*
X163656810Y-105563769D01*
X163404920Y-105512760D01*
X161704920Y-105512760D01*
X161469603Y-105557038D01*
X161253479Y-105696110D01*
X161108489Y-105908310D01*
X161057480Y-106160200D01*
X161057480Y-107860200D01*
X161101758Y-108095517D01*
X161240830Y-108311641D01*
X161453030Y-108456631D01*
X161520461Y-108470286D01*
X161475773Y-108500146D01*
X161153866Y-108981915D01*
X161040827Y-109550200D01*
X161153866Y-110118485D01*
X161475773Y-110600254D01*
X161804946Y-110820200D01*
X161475773Y-111040146D01*
X161153866Y-111521915D01*
X161040827Y-112090200D01*
X161153866Y-112658485D01*
X161475773Y-113140254D01*
X161804946Y-113360200D01*
X161475773Y-113580146D01*
X161153866Y-114061915D01*
X161040827Y-114630200D01*
X161153866Y-115198485D01*
X161475773Y-115680254D01*
X161804946Y-115900200D01*
X161475773Y-116120146D01*
X161153866Y-116601915D01*
X161040827Y-117170200D01*
X161153866Y-117738485D01*
X161475773Y-118220254D01*
X161804946Y-118440200D01*
X161475773Y-118660146D01*
X161153866Y-119141915D01*
X161040827Y-119710200D01*
X161153866Y-120278485D01*
X161475773Y-120760254D01*
X161804946Y-120980200D01*
X161475773Y-121200146D01*
X161153866Y-121681915D01*
X161040827Y-122250200D01*
X161153866Y-122818485D01*
X161475773Y-123300254D01*
X161804946Y-123520200D01*
X161475773Y-123740146D01*
X161153866Y-124221915D01*
X161040827Y-124790200D01*
X161153866Y-125358485D01*
X161277105Y-125542926D01*
X152091326Y-125535860D01*
X152091052Y-125535914D01*
X152090780Y-125535860D01*
X151955416Y-125562786D01*
X151819580Y-125589697D01*
X151819348Y-125589852D01*
X151819075Y-125589906D01*
X151704196Y-125666665D01*
X151589120Y-125743428D01*
X151588965Y-125743660D01*
X151588734Y-125743814D01*
X149501543Y-127831005D01*
X149733059Y-127259148D01*
X149724653Y-126210913D01*
X149339683Y-125281513D01*
X148968962Y-125060744D01*
X147273545Y-126756160D01*
X147287688Y-126770302D01*
X147108082Y-126949908D01*
X147093940Y-126935765D01*
X147079798Y-126949908D01*
X146900192Y-126770302D01*
X146914335Y-126756160D01*
X145218918Y-125060744D01*
X144848197Y-125281513D01*
X144454821Y-126253172D01*
X144463227Y-127301407D01*
X144848197Y-128230807D01*
X145218917Y-128451575D01*
X145124632Y-128545860D01*
X143491872Y-128545860D01*
X143574534Y-128490627D01*
X143896441Y-128008858D01*
X144009480Y-127440573D01*
X144009480Y-127382387D01*
X143896441Y-126814102D01*
X143574534Y-126332333D01*
X143573301Y-126331509D01*
X143609797Y-126324642D01*
X143825921Y-126185570D01*
X143970911Y-125973370D01*
X144021920Y-125721480D01*
X144021920Y-124881138D01*
X145398524Y-124881138D01*
X147093940Y-126576555D01*
X148789356Y-124881138D01*
X148568587Y-124510417D01*
X147596928Y-124117041D01*
X146548693Y-124125447D01*
X145619293Y-124510417D01*
X145398524Y-124881138D01*
X144021920Y-124881138D01*
X144021920Y-124021480D01*
X143977642Y-123786163D01*
X143838570Y-123570039D01*
X143626370Y-123425049D01*
X143374480Y-123374040D01*
X141674480Y-123374040D01*
X141439163Y-123418318D01*
X141223039Y-123557390D01*
X141078049Y-123769590D01*
X141064394Y-123837021D01*
X141034534Y-123792333D01*
X140552765Y-123470426D01*
X139984480Y-123357387D01*
X139416195Y-123470426D01*
X138934426Y-123792333D01*
X138714480Y-124121506D01*
X138494534Y-123792333D01*
X138012765Y-123470426D01*
X137444480Y-123357387D01*
X136876195Y-123470426D01*
X136394426Y-123792333D01*
X136072519Y-124274102D01*
X135959480Y-124842387D01*
X135959480Y-124900573D01*
X136072519Y-125468858D01*
X136394426Y-125950627D01*
X136680058Y-126141480D01*
X136394426Y-126332333D01*
X136072519Y-126814102D01*
X135959480Y-127382387D01*
X135959480Y-127440573D01*
X136072519Y-128008858D01*
X136394426Y-128490627D01*
X136477088Y-128545860D01*
X121064828Y-128545860D01*
X120960383Y-128441415D01*
X121331103Y-128220647D01*
X121724479Y-127248988D01*
X121723491Y-127125750D01*
X123417304Y-127125750D01*
X123587135Y-127535784D01*
X123977422Y-127964043D01*
X124501888Y-128210346D01*
X124731780Y-128089679D01*
X124731780Y-126895860D01*
X124985780Y-126895860D01*
X124985780Y-128089679D01*
X125215672Y-128210346D01*
X125740138Y-127964043D01*
X126130425Y-127535784D01*
X126300256Y-127125750D01*
X126178935Y-126895860D01*
X124985780Y-126895860D01*
X124731780Y-126895860D01*
X123538625Y-126895860D01*
X123417304Y-127125750D01*
X121723491Y-127125750D01*
X121716073Y-126200753D01*
X121331103Y-125271353D01*
X120960382Y-125050584D01*
X119264965Y-126746000D01*
X119279108Y-126760142D01*
X119099502Y-126939748D01*
X119085360Y-126925605D01*
X119071218Y-126939748D01*
X118891612Y-126760142D01*
X118905755Y-126746000D01*
X117210338Y-125050584D01*
X116839617Y-125271353D01*
X116446241Y-126243012D01*
X116454647Y-127291247D01*
X116684024Y-127845012D01*
X115005681Y-126166669D01*
X115232658Y-126121521D01*
X115714427Y-125799614D01*
X116036334Y-125317845D01*
X116125221Y-124870978D01*
X117389944Y-124870978D01*
X119085360Y-126566395D01*
X120780776Y-124870978D01*
X120560007Y-124500257D01*
X119889643Y-124228860D01*
X123344687Y-124228860D01*
X123457726Y-124797145D01*
X123779633Y-125278914D01*
X124120333Y-125506562D01*
X123977422Y-125573677D01*
X123587135Y-126001936D01*
X123417304Y-126411970D01*
X123538625Y-126641860D01*
X124731780Y-126641860D01*
X124731780Y-126621860D01*
X124985780Y-126621860D01*
X124985780Y-126641860D01*
X126178935Y-126641860D01*
X126300256Y-126411970D01*
X126130425Y-126001936D01*
X125740138Y-125573677D01*
X125597227Y-125506562D01*
X125937927Y-125278914D01*
X126259834Y-124797145D01*
X126372873Y-124228860D01*
X126259834Y-123660575D01*
X125937927Y-123178806D01*
X125896328Y-123151010D01*
X125944097Y-123142022D01*
X126160221Y-123002950D01*
X126305211Y-122790750D01*
X126356220Y-122538860D01*
X126356220Y-120838860D01*
X126311942Y-120603543D01*
X126172870Y-120387419D01*
X125960670Y-120242429D01*
X125708780Y-120191420D01*
X124008780Y-120191420D01*
X123773463Y-120235698D01*
X123557339Y-120374770D01*
X123412349Y-120586970D01*
X123361340Y-120838860D01*
X123361340Y-122538860D01*
X123405618Y-122774177D01*
X123544690Y-122990301D01*
X123756890Y-123135291D01*
X123824321Y-123148946D01*
X123779633Y-123178806D01*
X123457726Y-123660575D01*
X123344687Y-124228860D01*
X119889643Y-124228860D01*
X119588348Y-124106881D01*
X118540113Y-124115287D01*
X117610713Y-124500257D01*
X117389944Y-124870978D01*
X116125221Y-124870978D01*
X116149373Y-124749560D01*
X116036334Y-124181275D01*
X115714427Y-123699506D01*
X115385254Y-123479560D01*
X115714427Y-123259614D01*
X116036334Y-122777845D01*
X116149373Y-122209560D01*
X116036334Y-121641275D01*
X115714427Y-121159506D01*
X115385254Y-120939560D01*
X115714427Y-120719614D01*
X116036334Y-120237845D01*
X116149373Y-119669560D01*
X116036334Y-119101275D01*
X115714427Y-118619506D01*
X115385254Y-118399560D01*
X115714427Y-118179614D01*
X116036334Y-117697845D01*
X116149373Y-117129560D01*
X116036334Y-116561275D01*
X115714427Y-116079506D01*
X115385254Y-115859560D01*
X115714427Y-115639614D01*
X116036334Y-115157845D01*
X116149373Y-114589560D01*
X116036334Y-114021275D01*
X115714427Y-113539506D01*
X115672828Y-113511710D01*
X115720597Y-113502722D01*
X115936721Y-113363650D01*
X116034820Y-113220077D01*
X116034820Y-113718340D01*
X116095077Y-114021275D01*
X116112158Y-114107147D01*
X116332400Y-114436760D01*
X120230865Y-118335226D01*
X120230658Y-118572081D01*
X120442890Y-119085723D01*
X120835530Y-119479049D01*
X121348800Y-119692177D01*
X121904561Y-119692662D01*
X122418203Y-119480430D01*
X122811529Y-119087790D01*
X123024657Y-118574520D01*
X123025142Y-118018759D01*
X122812910Y-117505117D01*
X122420270Y-117111791D01*
X121907000Y-116898663D01*
X121667775Y-116898454D01*
X118066820Y-113297500D01*
X118066820Y-110481967D01*
X118234449Y-110314630D01*
X118447577Y-109801360D01*
X118448062Y-109245599D01*
X118235830Y-108731957D01*
X117843190Y-108338631D01*
X117329920Y-108125503D01*
X116774159Y-108125018D01*
X116260517Y-108337250D01*
X115867191Y-108729890D01*
X115654063Y-109243160D01*
X115653578Y-109798921D01*
X115865810Y-110312563D01*
X116034820Y-110481868D01*
X116034820Y-110880912D01*
X115949370Y-110748119D01*
X115737170Y-110603129D01*
X115485280Y-110552120D01*
X113785280Y-110552120D01*
X113549963Y-110596398D01*
X113333839Y-110735470D01*
X113188849Y-110947670D01*
X113137840Y-111199560D01*
X113137840Y-112899560D01*
X113182118Y-113134877D01*
X113321190Y-113351001D01*
X113533390Y-113495991D01*
X113600821Y-113509646D01*
X113556133Y-113539506D01*
X113234226Y-114021275D01*
X113121187Y-114589560D01*
X113234226Y-115157845D01*
X113556133Y-115639614D01*
X113885306Y-115859560D01*
X113556133Y-116079506D01*
X113234226Y-116561275D01*
X113121187Y-117129560D01*
X113234226Y-117697845D01*
X113556133Y-118179614D01*
X113885306Y-118399560D01*
X113556133Y-118619506D01*
X113234226Y-119101275D01*
X113121187Y-119669560D01*
X113234226Y-120237845D01*
X113556133Y-120719614D01*
X113885306Y-120939560D01*
X113556133Y-121159506D01*
X113234226Y-121641275D01*
X113121187Y-122209560D01*
X113234226Y-122777845D01*
X113556133Y-123259614D01*
X113885306Y-123479560D01*
X113556133Y-123699506D01*
X113234226Y-124181275D01*
X113121187Y-124749560D01*
X113234226Y-125317845D01*
X113386580Y-125545860D01*
X112800780Y-125545860D01*
X112800780Y-106987340D01*
X113126267Y-106987340D01*
X113239306Y-107555625D01*
X113561213Y-108037394D01*
X114042982Y-108359301D01*
X114611267Y-108472340D01*
X114669453Y-108472340D01*
X115237738Y-108359301D01*
X115719507Y-108037394D01*
X116041414Y-107555625D01*
X116154453Y-106987340D01*
X116041414Y-106419055D01*
X115719507Y-105937286D01*
X115378807Y-105709638D01*
X115521718Y-105642523D01*
X115912005Y-105214264D01*
X116081836Y-104804230D01*
X115960515Y-104574340D01*
X114767360Y-104574340D01*
X114767360Y-104594340D01*
X114513360Y-104594340D01*
X114513360Y-104574340D01*
X113320205Y-104574340D01*
X113198884Y-104804230D01*
X113368715Y-105214264D01*
X113759002Y-105642523D01*
X113901913Y-105709638D01*
X113561213Y-105937286D01*
X113239306Y-106419055D01*
X113126267Y-106987340D01*
X112800780Y-106987340D01*
X112800780Y-102264230D01*
X113198884Y-102264230D01*
X113368715Y-102674264D01*
X113759002Y-103102523D01*
X113918314Y-103177340D01*
X113759002Y-103252157D01*
X113368715Y-103680416D01*
X113198884Y-104090450D01*
X113320205Y-104320340D01*
X114513360Y-104320340D01*
X114513360Y-102034340D01*
X114767360Y-102034340D01*
X114767360Y-104320340D01*
X115960515Y-104320340D01*
X116081836Y-104090450D01*
X115912005Y-103680416D01*
X115521718Y-103252157D01*
X115362406Y-103177340D01*
X115521718Y-103102523D01*
X115912005Y-102674264D01*
X116081836Y-102264230D01*
X115960515Y-102034340D01*
X114767360Y-102034340D01*
X114513360Y-102034340D01*
X113320205Y-102034340D01*
X113198884Y-102264230D01*
X112800780Y-102264230D01*
X112800780Y-91747340D01*
X113126267Y-91747340D01*
X113239306Y-92315625D01*
X113561213Y-92797394D01*
X113890386Y-93017340D01*
X113561213Y-93237286D01*
X113239306Y-93719055D01*
X113126267Y-94287340D01*
X113239306Y-94855625D01*
X113561213Y-95337394D01*
X113890386Y-95557340D01*
X113561213Y-95777286D01*
X113239306Y-96259055D01*
X113126267Y-96827340D01*
X113239306Y-97395625D01*
X113561213Y-97877394D01*
X113890386Y-98097340D01*
X113561213Y-98317286D01*
X113239306Y-98799055D01*
X113126267Y-99367340D01*
X113239306Y-99935625D01*
X113561213Y-100417394D01*
X113901913Y-100645042D01*
X113759002Y-100712157D01*
X113368715Y-101140416D01*
X113198884Y-101550450D01*
X113320205Y-101780340D01*
X114513360Y-101780340D01*
X114513360Y-101760340D01*
X114767360Y-101760340D01*
X114767360Y-101780340D01*
X115960515Y-101780340D01*
X116081836Y-101550450D01*
X115912005Y-101140416D01*
X115521718Y-100712157D01*
X115378807Y-100645042D01*
X115719507Y-100417394D01*
X116041414Y-99935625D01*
X116154453Y-99367340D01*
X116041414Y-98799055D01*
X115719507Y-98317286D01*
X115390334Y-98097340D01*
X115719507Y-97877394D01*
X116041414Y-97395625D01*
X116154453Y-96827340D01*
X116041414Y-96259055D01*
X115719507Y-95777286D01*
X115390334Y-95557340D01*
X115719507Y-95337394D01*
X116041414Y-94855625D01*
X116154453Y-94287340D01*
X116041414Y-93719055D01*
X115719507Y-93237286D01*
X115390334Y-93017340D01*
X115719507Y-92797394D01*
X116041414Y-92315625D01*
X116154453Y-91747340D01*
X116041414Y-91179055D01*
X115719507Y-90697286D01*
X115677908Y-90669490D01*
X115725677Y-90660502D01*
X115941801Y-90521430D01*
X116086791Y-90309230D01*
X116106755Y-90210640D01*
X161017967Y-90210640D01*
X161131006Y-90778925D01*
X161452913Y-91260694D01*
X161782086Y-91480640D01*
X161452913Y-91700586D01*
X161131006Y-92182355D01*
X161017967Y-92750640D01*
X161131006Y-93318925D01*
X161452913Y-93800694D01*
X161782086Y-94020640D01*
X161452913Y-94240586D01*
X161131006Y-94722355D01*
X161017967Y-95290640D01*
X161131006Y-95858925D01*
X161452913Y-96340694D01*
X161782086Y-96560640D01*
X161452913Y-96780586D01*
X161131006Y-97262355D01*
X161017967Y-97830640D01*
X161131006Y-98398925D01*
X161452913Y-98880694D01*
X161782086Y-99100640D01*
X161452913Y-99320586D01*
X161131006Y-99802355D01*
X161017967Y-100370640D01*
X161131006Y-100938925D01*
X161452913Y-101420694D01*
X161782086Y-101640640D01*
X161452913Y-101860586D01*
X161131006Y-102342355D01*
X161017967Y-102910640D01*
X161131006Y-103478925D01*
X161452913Y-103960694D01*
X161934682Y-104282601D01*
X162502967Y-104395640D01*
X162561153Y-104395640D01*
X163129438Y-104282601D01*
X163611207Y-103960694D01*
X163933114Y-103478925D01*
X164046153Y-102910640D01*
X163933114Y-102342355D01*
X163611207Y-101860586D01*
X163282034Y-101640640D01*
X163611207Y-101420694D01*
X163933114Y-100938925D01*
X164046153Y-100370640D01*
X163933114Y-99802355D01*
X163611207Y-99320586D01*
X163282034Y-99100640D01*
X163611207Y-98880694D01*
X163933114Y-98398925D01*
X164046153Y-97830640D01*
X163933114Y-97262355D01*
X163611207Y-96780586D01*
X163282034Y-96560640D01*
X163611207Y-96340694D01*
X163933114Y-95858925D01*
X164046153Y-95290640D01*
X163933114Y-94722355D01*
X163611207Y-94240586D01*
X163282034Y-94020640D01*
X163611207Y-93800694D01*
X163933114Y-93318925D01*
X164046153Y-92750640D01*
X163933114Y-92182355D01*
X163611207Y-91700586D01*
X163282034Y-91480640D01*
X163611207Y-91260694D01*
X163933114Y-90778925D01*
X164046153Y-90210640D01*
X163933114Y-89642355D01*
X163611207Y-89160586D01*
X163270507Y-88932938D01*
X163413418Y-88865823D01*
X163803705Y-88437564D01*
X163973536Y-88027530D01*
X163852215Y-87797640D01*
X162659060Y-87797640D01*
X162659060Y-87817640D01*
X162405060Y-87817640D01*
X162405060Y-87797640D01*
X161211905Y-87797640D01*
X161090584Y-88027530D01*
X161260415Y-88437564D01*
X161650702Y-88865823D01*
X161793613Y-88932938D01*
X161452913Y-89160586D01*
X161131006Y-89642355D01*
X161017967Y-90210640D01*
X116106755Y-90210640D01*
X116137800Y-90057340D01*
X116137800Y-88357340D01*
X116093522Y-88122023D01*
X115954450Y-87905899D01*
X115742250Y-87760909D01*
X115490360Y-87709900D01*
X113790360Y-87709900D01*
X113555043Y-87754178D01*
X113338919Y-87893250D01*
X113193929Y-88105450D01*
X113142920Y-88357340D01*
X113142920Y-90057340D01*
X113187198Y-90292657D01*
X113326270Y-90508781D01*
X113538470Y-90653771D01*
X113605901Y-90667426D01*
X113561213Y-90697286D01*
X113239306Y-91179055D01*
X113126267Y-91747340D01*
X112800780Y-91747340D01*
X112800780Y-87501750D01*
X150722304Y-87501750D01*
X150892135Y-87911784D01*
X151282422Y-88340043D01*
X151806888Y-88586346D01*
X152036780Y-88465679D01*
X152036780Y-87271860D01*
X152290780Y-87271860D01*
X152290780Y-88465679D01*
X152520672Y-88586346D01*
X153045138Y-88340043D01*
X153435425Y-87911784D01*
X153605256Y-87501750D01*
X155548304Y-87501750D01*
X155718135Y-87911784D01*
X156108422Y-88340043D01*
X156632888Y-88586346D01*
X156862780Y-88465679D01*
X156862780Y-87271860D01*
X157116780Y-87271860D01*
X157116780Y-88465679D01*
X157346672Y-88586346D01*
X157871138Y-88340043D01*
X158261425Y-87911784D01*
X158431256Y-87501750D01*
X158309935Y-87271860D01*
X157116780Y-87271860D01*
X156862780Y-87271860D01*
X155669625Y-87271860D01*
X155548304Y-87501750D01*
X153605256Y-87501750D01*
X153483935Y-87271860D01*
X152290780Y-87271860D01*
X152036780Y-87271860D01*
X150843625Y-87271860D01*
X150722304Y-87501750D01*
X112800780Y-87501750D01*
X112800780Y-78235100D01*
X112824574Y-78258894D01*
X112937325Y-78146143D01*
X113158093Y-78516863D01*
X114129752Y-78910239D01*
X115177987Y-78901833D01*
X116107387Y-78516863D01*
X116205108Y-78352767D01*
X117912780Y-78352767D01*
X117912780Y-78410953D01*
X118025819Y-78979238D01*
X118347726Y-79461007D01*
X118633358Y-79651860D01*
X118347726Y-79842713D01*
X118025819Y-80324482D01*
X117912780Y-80892767D01*
X117912780Y-80950953D01*
X118025819Y-81519238D01*
X118347726Y-82001007D01*
X118829495Y-82322914D01*
X119397780Y-82435953D01*
X119966065Y-82322914D01*
X120447834Y-82001007D01*
X120667780Y-81671834D01*
X120887726Y-82001007D01*
X121369495Y-82322914D01*
X121892286Y-82426904D01*
X121770383Y-82720480D01*
X121769898Y-83276241D01*
X121982130Y-83789883D01*
X122374770Y-84183209D01*
X122888040Y-84396337D01*
X123443801Y-84396822D01*
X123957443Y-84184590D01*
X124126748Y-84015580D01*
X138437685Y-84015580D01*
X138685556Y-84263451D01*
X138685559Y-84263453D01*
X138768941Y-84346835D01*
X138768734Y-84583691D01*
X138980966Y-85097333D01*
X139373606Y-85490659D01*
X139886876Y-85703787D01*
X140442637Y-85704272D01*
X140956279Y-85492040D01*
X141349605Y-85099400D01*
X141554955Y-84604860D01*
X150649687Y-84604860D01*
X150762726Y-85173145D01*
X151084633Y-85654914D01*
X151425333Y-85882562D01*
X151282422Y-85949677D01*
X150892135Y-86377936D01*
X150722304Y-86787970D01*
X150843625Y-87017860D01*
X152036780Y-87017860D01*
X152036780Y-86997860D01*
X152290780Y-86997860D01*
X152290780Y-87017860D01*
X153483935Y-87017860D01*
X153605256Y-86787970D01*
X153435425Y-86377936D01*
X153298480Y-86227667D01*
X153646698Y-86227667D01*
X153788743Y-86571443D01*
X154051533Y-86834692D01*
X154395061Y-86977338D01*
X154767027Y-86977662D01*
X155110803Y-86835617D01*
X155374052Y-86572827D01*
X155516698Y-86229299D01*
X155517022Y-85857333D01*
X155420060Y-85622666D01*
X155420060Y-84604860D01*
X155475687Y-84604860D01*
X155588726Y-85173145D01*
X155910633Y-85654914D01*
X156251333Y-85882562D01*
X156108422Y-85949677D01*
X155718135Y-86377936D01*
X155548304Y-86787970D01*
X155669625Y-87017860D01*
X156862780Y-87017860D01*
X156862780Y-86997860D01*
X157116780Y-86997860D01*
X157116780Y-87017860D01*
X158309935Y-87017860D01*
X158431256Y-86787970D01*
X158261425Y-86377936D01*
X157871138Y-85949677D01*
X157728227Y-85882562D01*
X158068927Y-85654914D01*
X158390834Y-85173145D01*
X158503873Y-84604860D01*
X158390834Y-84036575D01*
X158068927Y-83554806D01*
X158027328Y-83527010D01*
X158075097Y-83518022D01*
X158291221Y-83378950D01*
X158436211Y-83166750D01*
X158487220Y-82914860D01*
X158487220Y-81214860D01*
X158442942Y-80979543D01*
X158303870Y-80763419D01*
X158091670Y-80618429D01*
X157839780Y-80567420D01*
X156139780Y-80567420D01*
X155904463Y-80611698D01*
X155688339Y-80750770D01*
X155543349Y-80962970D01*
X155492340Y-81214860D01*
X155492340Y-82914860D01*
X155536618Y-83150177D01*
X155675690Y-83366301D01*
X155887890Y-83511291D01*
X155955321Y-83524946D01*
X155910633Y-83554806D01*
X155588726Y-84036575D01*
X155475687Y-84604860D01*
X155420060Y-84604860D01*
X155420060Y-83860136D01*
X155526858Y-83602939D01*
X155527182Y-83230973D01*
X155385137Y-82887197D01*
X155122347Y-82623948D01*
X154778819Y-82481302D01*
X154406853Y-82480978D01*
X154063077Y-82623023D01*
X153799828Y-82885813D01*
X153657182Y-83229341D01*
X153656858Y-83601307D01*
X153743660Y-83811384D01*
X153743660Y-85622972D01*
X153647022Y-85855701D01*
X153646698Y-86227667D01*
X153298480Y-86227667D01*
X153045138Y-85949677D01*
X152902227Y-85882562D01*
X153242927Y-85654914D01*
X153564834Y-85173145D01*
X153677873Y-84604860D01*
X153564834Y-84036575D01*
X153242927Y-83554806D01*
X153201328Y-83527010D01*
X153249097Y-83518022D01*
X153465221Y-83378950D01*
X153610211Y-83166750D01*
X153661220Y-82914860D01*
X153661220Y-81214860D01*
X153616942Y-80979543D01*
X153477870Y-80763419D01*
X153265670Y-80618429D01*
X153013780Y-80567420D01*
X151313780Y-80567420D01*
X151078463Y-80611698D01*
X150862339Y-80750770D01*
X150717349Y-80962970D01*
X150666340Y-81214860D01*
X150666340Y-82914860D01*
X150710618Y-83150177D01*
X150849690Y-83366301D01*
X151061890Y-83511291D01*
X151129321Y-83524946D01*
X151084633Y-83554806D01*
X150762726Y-84036575D01*
X150649687Y-84604860D01*
X141554955Y-84604860D01*
X141562733Y-84586130D01*
X141563218Y-84030369D01*
X141350986Y-83516727D01*
X140958346Y-83123401D01*
X140445076Y-82910273D01*
X140205850Y-82910064D01*
X140122399Y-82826613D01*
X140122397Y-82826610D01*
X139576946Y-82281160D01*
X139247333Y-82060918D01*
X139182826Y-82048087D01*
X138858526Y-81983580D01*
X125539478Y-81983580D01*
X125849741Y-81519238D01*
X125962780Y-80950953D01*
X125962780Y-80892767D01*
X125849741Y-80324482D01*
X125527834Y-79842713D01*
X125526601Y-79841889D01*
X125563097Y-79835022D01*
X125779221Y-79695950D01*
X125924211Y-79483750D01*
X125975220Y-79231860D01*
X125975220Y-79096890D01*
X132670524Y-79096890D01*
X132840355Y-79506924D01*
X133230642Y-79935183D01*
X133755108Y-80181486D01*
X133985000Y-80060819D01*
X133985000Y-78867000D01*
X134239000Y-78867000D01*
X134239000Y-80060819D01*
X134468892Y-80181486D01*
X134993358Y-79935183D01*
X135383645Y-79506924D01*
X135553476Y-79096890D01*
X138258524Y-79096890D01*
X138428355Y-79506924D01*
X138818642Y-79935183D01*
X139343108Y-80181486D01*
X139573000Y-80060819D01*
X139573000Y-78867000D01*
X139827000Y-78867000D01*
X139827000Y-80060819D01*
X140056892Y-80181486D01*
X140581358Y-79935183D01*
X140971645Y-79506924D01*
X141141476Y-79096890D01*
X141131279Y-79077567D01*
X145808258Y-79077567D01*
X145950303Y-79421343D01*
X146213093Y-79684592D01*
X146556621Y-79827238D01*
X146928587Y-79827562D01*
X147272363Y-79685517D01*
X147296968Y-79660955D01*
X147338313Y-79702372D01*
X147681841Y-79845018D01*
X148053807Y-79845342D01*
X148397583Y-79703297D01*
X148419626Y-79681293D01*
X148438133Y-79699832D01*
X148781661Y-79842478D01*
X149153627Y-79842802D01*
X149497403Y-79700757D01*
X149760652Y-79437967D01*
X149858024Y-79203470D01*
X152483034Y-76578460D01*
X154525980Y-76578460D01*
X154846746Y-76514656D01*
X155118677Y-76332957D01*
X155599266Y-75852368D01*
X155832163Y-75756137D01*
X155840502Y-75747812D01*
X159951361Y-75747812D01*
X159959767Y-76796047D01*
X160344737Y-77725447D01*
X160715458Y-77946216D01*
X162410875Y-76250800D01*
X160715458Y-74555384D01*
X160344737Y-74776153D01*
X159951361Y-75747812D01*
X155840502Y-75747812D01*
X156095412Y-75493347D01*
X156238058Y-75149819D01*
X156238382Y-74777853D01*
X156096337Y-74434077D01*
X155833547Y-74170828D01*
X155490019Y-74028182D01*
X155118053Y-74027858D01*
X154774277Y-74169903D01*
X154511028Y-74432693D01*
X154413656Y-74667190D01*
X154178786Y-74902060D01*
X152920886Y-74902060D01*
X152921142Y-74607673D01*
X152779097Y-74263897D01*
X152516307Y-74000648D01*
X152172779Y-73858002D01*
X151800813Y-73857678D01*
X151457037Y-73999723D01*
X151193788Y-74262513D01*
X151096416Y-74497010D01*
X147581620Y-78011806D01*
X147581620Y-77080594D01*
X149005426Y-75656788D01*
X149238323Y-75560557D01*
X149501572Y-75297767D01*
X149644218Y-74954239D01*
X149644542Y-74582273D01*
X149502497Y-74238497D01*
X149239707Y-73975248D01*
X148896179Y-73832602D01*
X148524213Y-73832278D01*
X148180437Y-73974323D01*
X147917188Y-74237113D01*
X147819816Y-74471610D01*
X146150723Y-76140703D01*
X145969024Y-76412634D01*
X145969024Y-76412635D01*
X145905220Y-76733400D01*
X145905220Y-78472872D01*
X145808582Y-78705601D01*
X145808258Y-79077567D01*
X141131279Y-79077567D01*
X141020155Y-78867000D01*
X139827000Y-78867000D01*
X139573000Y-78867000D01*
X138379845Y-78867000D01*
X138258524Y-79096890D01*
X135553476Y-79096890D01*
X135432155Y-78867000D01*
X134239000Y-78867000D01*
X133985000Y-78867000D01*
X132791845Y-78867000D01*
X132670524Y-79096890D01*
X125975220Y-79096890D01*
X125975220Y-78075688D01*
X126027290Y-78127849D01*
X126540560Y-78340977D01*
X127096321Y-78341462D01*
X127609963Y-78129230D01*
X128003289Y-77736590D01*
X128216417Y-77223320D01*
X128216670Y-76933250D01*
X129175945Y-75973975D01*
X129412801Y-75974182D01*
X129926443Y-75761950D01*
X130319769Y-75369310D01*
X130327787Y-75350000D01*
X132614560Y-75350000D01*
X132614560Y-77050000D01*
X132658838Y-77285317D01*
X132797910Y-77501441D01*
X133010110Y-77646431D01*
X133118107Y-77668301D01*
X132840355Y-77973076D01*
X132670524Y-78383110D01*
X132791845Y-78613000D01*
X133985000Y-78613000D01*
X133985000Y-78593000D01*
X134239000Y-78593000D01*
X134239000Y-78613000D01*
X135432155Y-78613000D01*
X135553476Y-78383110D01*
X135383645Y-77973076D01*
X135107499Y-77670063D01*
X135197317Y-77653162D01*
X135413441Y-77514090D01*
X135558431Y-77301890D01*
X135609440Y-77050000D01*
X135609440Y-75350000D01*
X138202560Y-75350000D01*
X138202560Y-77050000D01*
X138246838Y-77285317D01*
X138385910Y-77501441D01*
X138598110Y-77646431D01*
X138706107Y-77668301D01*
X138428355Y-77973076D01*
X138258524Y-78383110D01*
X138379845Y-78613000D01*
X139573000Y-78613000D01*
X139573000Y-78593000D01*
X139827000Y-78593000D01*
X139827000Y-78613000D01*
X141020155Y-78613000D01*
X141141476Y-78383110D01*
X140971645Y-77973076D01*
X140695499Y-77670063D01*
X140785317Y-77653162D01*
X141001441Y-77514090D01*
X141146431Y-77301890D01*
X141197440Y-77050000D01*
X141197440Y-75350000D01*
X141153162Y-75114683D01*
X141014090Y-74898559D01*
X140801890Y-74753569D01*
X140550000Y-74702560D01*
X138850000Y-74702560D01*
X138614683Y-74746838D01*
X138398559Y-74885910D01*
X138253569Y-75098110D01*
X138202560Y-75350000D01*
X135609440Y-75350000D01*
X135565162Y-75114683D01*
X135426090Y-74898559D01*
X135213890Y-74753569D01*
X134962000Y-74702560D01*
X133262000Y-74702560D01*
X133026683Y-74746838D01*
X132810559Y-74885910D01*
X132665569Y-75098110D01*
X132614560Y-75350000D01*
X130327787Y-75350000D01*
X130532897Y-74856040D01*
X130533382Y-74300279D01*
X130321150Y-73786637D01*
X129928510Y-73393311D01*
X129415240Y-73180183D01*
X128859479Y-73179698D01*
X128345837Y-73391930D01*
X127952511Y-73784570D01*
X127739383Y-74297840D01*
X127739174Y-74537065D01*
X126729099Y-75547140D01*
X126542999Y-75546978D01*
X126029357Y-75759210D01*
X125636031Y-76151850D01*
X125422903Y-76665120D01*
X125422695Y-76903641D01*
X125327780Y-76884420D01*
X123627780Y-76884420D01*
X123392463Y-76928698D01*
X123176339Y-77067770D01*
X123031349Y-77279970D01*
X123017694Y-77347401D01*
X122987834Y-77302713D01*
X122506065Y-76980806D01*
X121937780Y-76867767D01*
X121369495Y-76980806D01*
X120887726Y-77302713D01*
X120667780Y-77631886D01*
X120447834Y-77302713D01*
X119966065Y-76980806D01*
X119397780Y-76867767D01*
X118829495Y-76980806D01*
X118347726Y-77302713D01*
X118025819Y-77784482D01*
X117912780Y-78352767D01*
X116205108Y-78352767D01*
X116328156Y-78146142D01*
X114632740Y-76450725D01*
X114618598Y-76464868D01*
X114438992Y-76285262D01*
X114453135Y-76271120D01*
X114812345Y-76271120D01*
X116507762Y-77966536D01*
X116878483Y-77745767D01*
X117271859Y-76774108D01*
X117263453Y-75725873D01*
X116878483Y-74796473D01*
X116507762Y-74575704D01*
X114812345Y-76271120D01*
X114453135Y-76271120D01*
X114438992Y-76256978D01*
X114618598Y-76077372D01*
X114632740Y-76091515D01*
X116328156Y-74396098D01*
X116107387Y-74025377D01*
X115135728Y-73632001D01*
X114087493Y-73640407D01*
X113158093Y-74025377D01*
X112937325Y-74396097D01*
X112824574Y-74283346D01*
X112800780Y-74307140D01*
X112800780Y-70469687D01*
X113153605Y-70469687D01*
X113447570Y-71181138D01*
X113991419Y-71725937D01*
X114702356Y-72021143D01*
X115472147Y-72021815D01*
X116041702Y-71786480D01*
X117841500Y-71786480D01*
X117841500Y-74386480D01*
X117885778Y-74621797D01*
X118024850Y-74837921D01*
X118237050Y-74982911D01*
X118488940Y-75033920D01*
X121088940Y-75033920D01*
X121324257Y-74989642D01*
X121540381Y-74850570D01*
X121685371Y-74638370D01*
X121736380Y-74386480D01*
X121736380Y-71786480D01*
X121692102Y-71551163D01*
X121553030Y-71335039D01*
X121340830Y-71190049D01*
X121088940Y-71139040D01*
X118488940Y-71139040D01*
X118253623Y-71183318D01*
X118037499Y-71322390D01*
X117892509Y-71534590D01*
X117841500Y-71786480D01*
X116041702Y-71786480D01*
X116183598Y-71727850D01*
X116728397Y-71184001D01*
X117023603Y-70473064D01*
X117024275Y-69703273D01*
X116730310Y-68991822D01*
X116195362Y-68455939D01*
X118599086Y-68455939D01*
X118734444Y-68753935D01*
X119452820Y-69030546D01*
X120222367Y-69011190D01*
X120843436Y-68753935D01*
X120978794Y-68455939D01*
X119788940Y-67266085D01*
X118599086Y-68455939D01*
X116195362Y-68455939D01*
X116186461Y-68447023D01*
X115475524Y-68151817D01*
X114705733Y-68151145D01*
X113994282Y-68445110D01*
X113449483Y-68988959D01*
X113154277Y-69699896D01*
X113153605Y-70469687D01*
X112800780Y-70469687D01*
X112800780Y-66750360D01*
X117844874Y-66750360D01*
X117864230Y-67519907D01*
X118121485Y-68140976D01*
X118419481Y-68276334D01*
X119609335Y-67086480D01*
X119968545Y-67086480D01*
X121158399Y-68276334D01*
X121456395Y-68140976D01*
X121733006Y-67422600D01*
X121713650Y-66653053D01*
X121595963Y-66368930D01*
X130163440Y-66368930D01*
X130163440Y-67709490D01*
X130260113Y-67942879D01*
X130438742Y-68121507D01*
X130672131Y-68218180D01*
X132012690Y-68218180D01*
X132171440Y-68059430D01*
X132171440Y-66210180D01*
X132425440Y-66210180D01*
X132425440Y-68059430D01*
X132584190Y-68218180D01*
X133924749Y-68218180D01*
X134158138Y-68121507D01*
X134336767Y-67942879D01*
X134433440Y-67709490D01*
X134433440Y-66505995D01*
X135243070Y-66505995D01*
X135567420Y-67290980D01*
X136167481Y-67892089D01*
X136951899Y-68217808D01*
X137801255Y-68218550D01*
X138586240Y-67894200D01*
X139187349Y-67294139D01*
X139513068Y-66509721D01*
X139513810Y-65660365D01*
X139189460Y-64875380D01*
X138945946Y-64631440D01*
X141824840Y-64631440D01*
X141824840Y-67631440D01*
X141869118Y-67866757D01*
X142008190Y-68082881D01*
X142220390Y-68227871D01*
X142472280Y-68278880D01*
X145472280Y-68278880D01*
X145707597Y-68234602D01*
X145923721Y-68095530D01*
X146068711Y-67883330D01*
X146119720Y-67631440D01*
X146119720Y-66554255D01*
X146916910Y-66554255D01*
X147241260Y-67339240D01*
X147841321Y-67940349D01*
X148625739Y-68266068D01*
X149475095Y-68266810D01*
X150260080Y-67942460D01*
X150861189Y-67342399D01*
X151186908Y-66557981D01*
X151187650Y-65708625D01*
X150863300Y-64923640D01*
X150576681Y-64636520D01*
X152701120Y-64636520D01*
X152701120Y-67636520D01*
X152745398Y-67871837D01*
X152884470Y-68087961D01*
X153096670Y-68232951D01*
X153348560Y-68283960D01*
X156348560Y-68283960D01*
X156583877Y-68239682D01*
X156800001Y-68100610D01*
X156944991Y-67888410D01*
X156996000Y-67636520D01*
X156996000Y-66559335D01*
X157793190Y-66559335D01*
X158117540Y-67344320D01*
X158717601Y-67945429D01*
X159502019Y-68271148D01*
X160351375Y-68271890D01*
X161136360Y-67947540D01*
X161737469Y-67347479D01*
X162063188Y-66563061D01*
X162063930Y-65713705D01*
X161739580Y-64928720D01*
X161139519Y-64327611D01*
X160355101Y-64001892D01*
X159505745Y-64001150D01*
X158720760Y-64325500D01*
X158119651Y-64925561D01*
X157793932Y-65709979D01*
X157793190Y-66559335D01*
X156996000Y-66559335D01*
X156996000Y-64636520D01*
X156951722Y-64401203D01*
X156812650Y-64185079D01*
X156600450Y-64040089D01*
X156348560Y-63989080D01*
X153348560Y-63989080D01*
X153113243Y-64033358D01*
X152897119Y-64172430D01*
X152752129Y-64384630D01*
X152701120Y-64636520D01*
X150576681Y-64636520D01*
X150263239Y-64322531D01*
X149478821Y-63996812D01*
X148629465Y-63996070D01*
X147844480Y-64320420D01*
X147243371Y-64920481D01*
X146917652Y-65704899D01*
X146916910Y-66554255D01*
X146119720Y-66554255D01*
X146119720Y-64631440D01*
X146075442Y-64396123D01*
X145936370Y-64179999D01*
X145724170Y-64035009D01*
X145472280Y-63984000D01*
X142472280Y-63984000D01*
X142236963Y-64028278D01*
X142020839Y-64167350D01*
X141875849Y-64379550D01*
X141824840Y-64631440D01*
X138945946Y-64631440D01*
X138589399Y-64274271D01*
X137804981Y-63948552D01*
X136955625Y-63947810D01*
X136170640Y-64272160D01*
X135569531Y-64872221D01*
X135243812Y-65656639D01*
X135243070Y-66505995D01*
X134433440Y-66505995D01*
X134433440Y-66368930D01*
X134274690Y-66210180D01*
X132425440Y-66210180D01*
X132171440Y-66210180D01*
X130322190Y-66210180D01*
X130163440Y-66368930D01*
X121595963Y-66368930D01*
X121456395Y-66031984D01*
X121158399Y-65896626D01*
X119968545Y-67086480D01*
X119609335Y-67086480D01*
X118419481Y-65896626D01*
X118121485Y-66031984D01*
X117844874Y-66750360D01*
X112800780Y-66750360D01*
X112800780Y-65717021D01*
X118599086Y-65717021D01*
X119788940Y-66906875D01*
X120978794Y-65717021D01*
X120843436Y-65419025D01*
X120125060Y-65142414D01*
X119355513Y-65161770D01*
X118734444Y-65419025D01*
X118599086Y-65717021D01*
X112800780Y-65717021D01*
X112800780Y-64456870D01*
X130163440Y-64456870D01*
X130163440Y-65797430D01*
X130322190Y-65956180D01*
X132171440Y-65956180D01*
X132171440Y-64106930D01*
X132425440Y-64106930D01*
X132425440Y-65956180D01*
X134274690Y-65956180D01*
X134433440Y-65797430D01*
X134433440Y-64456870D01*
X134336767Y-64223481D01*
X134158138Y-64044853D01*
X133924749Y-63948180D01*
X132584190Y-63948180D01*
X132425440Y-64106930D01*
X132171440Y-64106930D01*
X132012690Y-63948180D01*
X130672131Y-63948180D01*
X130438742Y-64044853D01*
X130260113Y-64223481D01*
X130163440Y-64456870D01*
X112800780Y-64456870D01*
X112800780Y-61965860D01*
X164380780Y-61965860D01*
X164380780Y-74280892D01*
M02*
