M48
;DRILL file {KiCad 4.0.7} date 01/29/18 06:00:02
;FORMAT={-:-/ absolute / metric / decimal}
FMAT,2
METRIC,TZ
T1C0.400
T2C0.762
T3C1.000
T4C1.520
T5C1.600
T6C3.200
%
G90
G05
M71
T1
X146.743Y-78.892
X147.869Y-78.91
X148.709Y-74.767
X148.968Y-78.908
X151.986Y-74.793
X154.582Y-86.042
X154.592Y-83.416
X155.303Y-74.963
T2
X117.051Y-109.522
X121.628Y-118.295
X123.167Y-83.
X126.82Y-76.944
X129.136Y-74.577
X140.166Y-84.307
X151.994Y-78.842
T3
X114.635Y-112.05
X114.635Y-114.59
X114.635Y-117.13
X114.635Y-119.67
X114.635Y-122.21
X114.635Y-124.75
X114.64Y-89.207
X114.64Y-91.747
X114.64Y-94.287
X114.64Y-96.827
X114.64Y-99.367
X114.64Y-101.907
X114.64Y-104.447
X114.64Y-106.987
X119.398Y-78.382
X119.398Y-80.922
X121.938Y-78.382
X121.938Y-80.922
X124.478Y-78.382
X124.478Y-80.922
X124.859Y-121.689
X124.859Y-124.229
X124.859Y-126.769
X134.112Y-76.2
X134.112Y-78.74
X137.444Y-124.871
X137.444Y-127.411
X139.7Y-76.2
X139.7Y-78.74
X139.984Y-124.871
X139.984Y-127.411
X142.524Y-124.871
X142.524Y-127.411
X152.164Y-82.065
X152.164Y-84.605
X152.164Y-87.145
X156.99Y-82.065
X156.99Y-84.605
X156.99Y-87.145
X162.532Y-80.051
X162.532Y-82.591
X162.532Y-85.131
X162.532Y-87.671
X162.532Y-90.211
X162.532Y-92.751
X162.532Y-95.291
X162.532Y-97.831
X162.532Y-100.371
X162.532Y-102.911
X162.555Y-107.01
X162.555Y-109.55
X162.555Y-112.09
X162.555Y-114.63
X162.555Y-117.17
X162.555Y-119.71
X162.555Y-122.25
X162.555Y-124.79
T4
X132.298Y-66.083
X137.378Y-66.083
X143.972Y-66.131
X149.052Y-66.131
X154.849Y-66.137
X159.929Y-66.137
T5
X115.089Y-70.086
X119.789Y-67.086
X119.789Y-73.086
T6
X114.633Y-76.271
X119.085Y-126.746
X147.094Y-126.756
X162.59Y-76.251
T0
M30
