G04 #@! TF.FileFunction,Soldermask,Bot*
%FSLAX46Y46*%
G04 Gerber Fmt 4.6, Leading zero omitted, Abs format (unit mm)*
G04 Created by KiCad (PCBNEW 4.0.7) date 01/29/18 05:57:29*
%MOMM*%
%LPD*%
G01*
G04 APERTURE LIST*
%ADD10C,0.100000*%
%ADD11R,2.100000X2.100000*%
%ADD12O,2.100000X2.100000*%
%ADD13R,3.000000X3.000000*%
%ADD14C,3.000000*%
%ADD15R,3.400000X3.400000*%
%ADD16C,3.400000*%
%ADD17C,4.400000*%
G04 APERTURE END LIST*
D10*
D11*
X142524480Y-124871480D03*
D12*
X142524480Y-127411480D03*
X139984480Y-124871480D03*
X139984480Y-127411480D03*
X137444480Y-124871480D03*
X137444480Y-127411480D03*
D13*
X119788940Y-73086480D03*
D14*
X119788940Y-67086480D03*
X115088940Y-70086480D03*
D11*
X124477780Y-78381860D03*
D12*
X124477780Y-80921860D03*
X121937780Y-78381860D03*
X121937780Y-80921860D03*
X119397780Y-78381860D03*
X119397780Y-80921860D03*
D11*
X114635280Y-112049560D03*
D12*
X114635280Y-114589560D03*
X114635280Y-117129560D03*
X114635280Y-119669560D03*
X114635280Y-122209560D03*
X114635280Y-124749560D03*
D15*
X132298440Y-66083180D03*
D16*
X137378440Y-66083180D03*
D15*
X143972280Y-66131440D03*
D16*
X149052280Y-66131440D03*
D11*
X162532060Y-80050640D03*
D12*
X162532060Y-82590640D03*
X162532060Y-85130640D03*
X162532060Y-87670640D03*
X162532060Y-90210640D03*
X162532060Y-92750640D03*
X162532060Y-95290640D03*
X162532060Y-97830640D03*
X162532060Y-100370640D03*
X162532060Y-102910640D03*
D11*
X162554920Y-107010200D03*
D12*
X162554920Y-109550200D03*
X162554920Y-112090200D03*
X162554920Y-114630200D03*
X162554920Y-117170200D03*
X162554920Y-119710200D03*
X162554920Y-122250200D03*
X162554920Y-124790200D03*
D15*
X154848560Y-66136520D03*
D16*
X159928560Y-66136520D03*
D11*
X156989780Y-82064860D03*
D12*
X156989780Y-84604860D03*
X156989780Y-87144860D03*
D11*
X152163780Y-82064860D03*
D12*
X152163780Y-84604860D03*
X152163780Y-87144860D03*
D17*
X114632740Y-76271120D03*
X119085360Y-126746000D03*
X147093940Y-126756160D03*
D11*
X124858780Y-121688860D03*
D12*
X124858780Y-124228860D03*
X124858780Y-126768860D03*
D11*
X114640360Y-89207340D03*
D12*
X114640360Y-91747340D03*
X114640360Y-94287340D03*
X114640360Y-96827340D03*
X114640360Y-99367340D03*
X114640360Y-101907340D03*
X114640360Y-104447340D03*
X114640360Y-106987340D03*
D17*
X162590480Y-76250800D03*
D11*
X134112000Y-76200000D03*
D12*
X134112000Y-78740000D03*
D11*
X139700000Y-76200000D03*
D12*
X139700000Y-78740000D03*
M02*
