G04 #@! TF.FileFunction,Copper,L1,Top,Signal*
%FSLAX46Y46*%
G04 Gerber Fmt 4.6, Leading zero omitted, Abs format (unit mm)*
G04 Created by KiCad (PCBNEW 4.0.7) date 01/29/18 05:57:28*
%MOMM*%
%LPD*%
G01*
G04 APERTURE LIST*
%ADD10C,0.100000*%
%ADD11R,1.700000X1.700000*%
%ADD12O,1.700000X1.700000*%
%ADD13R,2.600000X2.600000*%
%ADD14C,2.600000*%
%ADD15R,3.000000X3.000000*%
%ADD16C,3.000000*%
%ADD17C,4.000000*%
%ADD18R,1.300000X1.500000*%
%ADD19C,1.524000*%
%ADD20C,0.600000*%
%ADD21C,0.762000*%
%ADD22C,0.406400*%
G04 APERTURE END LIST*
D10*
D11*
X142524480Y-124871480D03*
D12*
X142524480Y-127411480D03*
X139984480Y-124871480D03*
X139984480Y-127411480D03*
X137444480Y-124871480D03*
X137444480Y-127411480D03*
D13*
X119788940Y-73086480D03*
D14*
X119788940Y-67086480D03*
X115088940Y-70086480D03*
D11*
X124477780Y-78381860D03*
D12*
X124477780Y-80921860D03*
X121937780Y-78381860D03*
X121937780Y-80921860D03*
X119397780Y-78381860D03*
X119397780Y-80921860D03*
D11*
X114635280Y-112049560D03*
D12*
X114635280Y-114589560D03*
X114635280Y-117129560D03*
X114635280Y-119669560D03*
X114635280Y-122209560D03*
X114635280Y-124749560D03*
D15*
X132298440Y-66083180D03*
D16*
X137378440Y-66083180D03*
D15*
X143972280Y-66131440D03*
D16*
X149052280Y-66131440D03*
D11*
X162532060Y-80050640D03*
D12*
X162532060Y-82590640D03*
X162532060Y-85130640D03*
X162532060Y-87670640D03*
X162532060Y-90210640D03*
X162532060Y-92750640D03*
X162532060Y-95290640D03*
X162532060Y-97830640D03*
X162532060Y-100370640D03*
X162532060Y-102910640D03*
D11*
X162554920Y-107010200D03*
D12*
X162554920Y-109550200D03*
X162554920Y-112090200D03*
X162554920Y-114630200D03*
X162554920Y-117170200D03*
X162554920Y-119710200D03*
X162554920Y-122250200D03*
X162554920Y-124790200D03*
D15*
X154848560Y-66136520D03*
D16*
X159928560Y-66136520D03*
D11*
X156989780Y-82064860D03*
D12*
X156989780Y-84604860D03*
X156989780Y-87144860D03*
D11*
X152163780Y-82064860D03*
D12*
X152163780Y-84604860D03*
X152163780Y-87144860D03*
D17*
X114632740Y-76271120D03*
X119085360Y-126746000D03*
X147093940Y-126756160D03*
D18*
X150385780Y-74571860D03*
X150385780Y-77271860D03*
X146956780Y-74571860D03*
X146956780Y-77271860D03*
X156862780Y-74571860D03*
X156862780Y-77271860D03*
X153560780Y-74571860D03*
X153560780Y-77271860D03*
D11*
X124858780Y-121688860D03*
D12*
X124858780Y-124228860D03*
X124858780Y-126768860D03*
D11*
X114640360Y-89207340D03*
D12*
X114640360Y-91747340D03*
X114640360Y-94287340D03*
X114640360Y-96827340D03*
X114640360Y-99367340D03*
X114640360Y-101907340D03*
X114640360Y-104447340D03*
X114640360Y-106987340D03*
D17*
X162590480Y-76250800D03*
D11*
X134112000Y-76200000D03*
D12*
X134112000Y-78740000D03*
D11*
X139700000Y-76200000D03*
D12*
X139700000Y-78740000D03*
D19*
X151993600Y-78841600D03*
X121627900Y-118295420D03*
X117050820Y-109522260D03*
X129136140Y-74576940D03*
X126819660Y-76944220D03*
X140165976Y-84307030D03*
X123167140Y-82999580D03*
D20*
X146743420Y-78892400D03*
X148709380Y-74767440D03*
X147868640Y-78910180D03*
X151985980Y-74792840D03*
X148968460Y-78907640D03*
X155303220Y-74963020D03*
X154592020Y-83416140D03*
X154581860Y-86042500D03*
D21*
X119788940Y-73086480D02*
X119788940Y-77990700D01*
X119788940Y-77990700D02*
X119397780Y-78381860D01*
X152052020Y-77271860D02*
X153560780Y-77271860D01*
X150385780Y-77271860D02*
X152052020Y-77271860D01*
X152052020Y-77271860D02*
X152052020Y-78783180D01*
X152052020Y-78783180D02*
X151993600Y-78841600D01*
X156862780Y-77271860D02*
X153560780Y-77271860D01*
X146956780Y-77271860D02*
X150385780Y-77271860D01*
X121627900Y-118457980D02*
X124858780Y-121688860D01*
X121627900Y-118295420D02*
X121627900Y-118457980D01*
X112933480Y-108562140D02*
X113893600Y-109522260D01*
X113893600Y-109522260D02*
X117050820Y-109522260D01*
X112933480Y-99872139D02*
X112933480Y-108562140D01*
X114640360Y-99367340D02*
X113438279Y-99367340D01*
X113438279Y-99367340D02*
X112933480Y-99872139D01*
X129136140Y-74576940D02*
X137378440Y-66334640D01*
X137378440Y-66334640D02*
X137378440Y-66083180D01*
X124477780Y-78381860D02*
X125382020Y-78381860D01*
X125382020Y-78381860D02*
X126819660Y-76944220D01*
X114640360Y-99367340D02*
X116677440Y-97330260D01*
X116677440Y-97330260D02*
X116677440Y-87711280D01*
X116677440Y-87711280D02*
X119766080Y-84622640D01*
X119766080Y-84622640D02*
X123710700Y-84622640D01*
X123710700Y-84622640D02*
X125908781Y-82424559D01*
X125908781Y-82424559D02*
X125908781Y-79812861D01*
X125908781Y-79812861D02*
X124477780Y-78381860D01*
X152163780Y-84604860D02*
X156989780Y-84604860D01*
X140463806Y-84604860D02*
X140165976Y-84307030D01*
X152163780Y-84604860D02*
X140463806Y-84604860D01*
X124477780Y-80921860D02*
X124477780Y-81688940D01*
X124477780Y-81688940D02*
X123167140Y-82999580D01*
X124477780Y-80921860D02*
X121937780Y-80921860D01*
X119397780Y-80921860D02*
X121937780Y-80921860D01*
X114640360Y-106987340D02*
X115842441Y-106987340D01*
X115842441Y-106987340D02*
X115978940Y-106850841D01*
X115978940Y-106850841D02*
X115978940Y-106827320D01*
X115978940Y-106827320D02*
X116842540Y-105963720D01*
X116842540Y-101681280D02*
X118386860Y-100136960D01*
X118386860Y-88231980D02*
X120830340Y-85788500D01*
X120830340Y-85788500D02*
X124947680Y-85788500D01*
X124947680Y-85788500D02*
X128397000Y-82339180D01*
X128397000Y-82339180D02*
X128397000Y-76243180D01*
X128397000Y-76243180D02*
X127393700Y-75239880D01*
X127393700Y-75239880D02*
X125079760Y-75239880D01*
X125079760Y-75239880D02*
X122787779Y-77531861D01*
X122787779Y-77531861D02*
X121937780Y-78381860D01*
X116842540Y-105963720D02*
X116842540Y-101681280D01*
X118386860Y-100136960D02*
X118386860Y-88231980D01*
D22*
X146956780Y-74571860D02*
X145900380Y-74571860D01*
X145900380Y-74571860D02*
X143967200Y-76505040D01*
X143967200Y-76505040D02*
X143967200Y-78234540D01*
X143967200Y-78234540D02*
X141488160Y-80713580D01*
X141488160Y-80713580D02*
X131785360Y-80713580D01*
X131785360Y-80713580D02*
X125244860Y-87254080D01*
X125244860Y-87254080D02*
X122301000Y-87254080D01*
X122301000Y-87254080D02*
X120398540Y-89156540D01*
X120398540Y-89156540D02*
X120398540Y-108826300D01*
X120398540Y-108826300D02*
X114635280Y-114589560D01*
X145868260Y-69957820D02*
X146956780Y-71046340D01*
X146956780Y-71046340D02*
X146956780Y-74571860D01*
X145868260Y-69933820D02*
X145868260Y-69957820D01*
X143972280Y-66131440D02*
X143972280Y-68037840D01*
X143972280Y-68037840D02*
X145868260Y-69933820D01*
X121142760Y-89651840D02*
X121142760Y-110622080D01*
X121142760Y-110622080D02*
X114635280Y-117129560D01*
X122605800Y-88188800D02*
X121142760Y-89651840D01*
X125778260Y-88188800D02*
X122605800Y-88188800D01*
X132397500Y-81569560D02*
X125778260Y-88188800D01*
X141665960Y-81569560D02*
X132397500Y-81569560D01*
X144315180Y-78920340D02*
X141665960Y-81569560D01*
X146291216Y-78920340D02*
X144315180Y-78920340D01*
X146743420Y-78892400D02*
X146319156Y-78892400D01*
X146319156Y-78892400D02*
X146291216Y-78920340D01*
X150385780Y-74571860D02*
X148904960Y-74571860D01*
X148904960Y-74571860D02*
X148709380Y-74767440D01*
X149052280Y-66212720D02*
X150385780Y-67546220D01*
X150385780Y-67546220D02*
X150385780Y-74571860D01*
X149052280Y-66131440D02*
X149052280Y-66212720D01*
X121958100Y-90390980D02*
X121958100Y-112346740D01*
X121958100Y-112346740D02*
X114635280Y-119669560D01*
X123268740Y-89080340D02*
X121958100Y-90390980D01*
X126466600Y-89080340D02*
X123268740Y-89080340D01*
X133230620Y-82316320D02*
X126466600Y-89080340D01*
X141902180Y-82316320D02*
X133230620Y-82316320D01*
X144592040Y-79626460D02*
X141902180Y-82316320D01*
X147576624Y-79626460D02*
X144592040Y-79626460D01*
X147868640Y-78910180D02*
X147868640Y-79334444D01*
X147868640Y-79334444D02*
X147576624Y-79626460D01*
X153560780Y-74571860D02*
X152206960Y-74571860D01*
X152206960Y-74571860D02*
X151985980Y-74792840D01*
X153560780Y-74571860D02*
X153253440Y-74571860D01*
X154848560Y-66136520D02*
X154848560Y-74340480D01*
X154848560Y-74340480D02*
X154617180Y-74571860D01*
X154617180Y-74571860D02*
X153560780Y-74571860D01*
X122877580Y-90820240D02*
X122877580Y-113967260D01*
X122877580Y-113967260D02*
X114635280Y-122209560D01*
X123850400Y-89847420D02*
X122877580Y-90820240D01*
X127083820Y-89847420D02*
X123850400Y-89847420D01*
X133789420Y-83141820D02*
X127083820Y-89847420D01*
X142240000Y-83141820D02*
X133789420Y-83141820D01*
X144950180Y-80431640D02*
X142240000Y-83141820D01*
X147868724Y-80431640D02*
X144950180Y-80431640D01*
X148968460Y-78907640D02*
X148968460Y-79331904D01*
X148968460Y-79331904D02*
X147868724Y-80431640D01*
X155806380Y-74571860D02*
X155694380Y-74571860D01*
X155694380Y-74571860D02*
X155303220Y-74963020D01*
X156862780Y-74571860D02*
X155806380Y-74571860D01*
X157919180Y-74571860D02*
X156862780Y-74571860D01*
X159928560Y-66136520D02*
X159928560Y-72562480D01*
X159928560Y-72562480D02*
X157919180Y-74571860D01*
X124858780Y-124228860D02*
X123656699Y-124228860D01*
X123656699Y-124228860D02*
X122871839Y-123444000D01*
X122871839Y-123444000D02*
X115940840Y-123444000D01*
X115940840Y-123444000D02*
X114635280Y-124749560D01*
X162554920Y-109550200D02*
X160385760Y-107381040D01*
X160385760Y-84204440D02*
X158246180Y-82064860D01*
X158246180Y-82064860D02*
X156989780Y-82064860D01*
X160385760Y-107381040D02*
X160385760Y-84204440D01*
X154592020Y-83416140D02*
X153261060Y-82085180D01*
X153261060Y-82085180D02*
X152184100Y-82085180D01*
X152184100Y-82085180D02*
X152163780Y-82064860D01*
X155006040Y-88506300D02*
X154581860Y-88082120D01*
X154581860Y-88082120D02*
X154581860Y-86042500D01*
X155006040Y-88508840D02*
X155006040Y-88506300D01*
X162554920Y-112090200D02*
X159202120Y-108737400D01*
X159202120Y-108737400D02*
X159202120Y-90520520D01*
X159202120Y-90520520D02*
X157673040Y-88991440D01*
X155488640Y-88991440D02*
X155006040Y-88508840D01*
X157673040Y-88991440D02*
X155488640Y-88991440D01*
X134112000Y-76200000D02*
X139700000Y-76200000D01*
M02*
